<?xml version="1.0" encoding="UTF-8"?>
<svg xmlns="http://www.w3.org/2000/svg" viewBox="0 0 3370.16 725.57">
  <defs>
    <style>
      .cls-1 {
        fill: #603913;
      }

      .cls-1, .cls-2, .cls-3, .cls-4, .cls-5 {
        mix-blend-mode: multiply;
      }

      .cls-6 {
        isolation: isolate;
      }

      .cls-2 {
        fill: #f7941d;
      }

      .cls-7 {
        fill: #2b3990;
      }

      .cls-3 {
        fill: #ffc20e;
      }

      .cls-4 {
        fill: #f15a29;
      }

      .cls-5 {
        fill: #1c75bc;
      }
    </style>
  </defs>
  <g class="cls-6">
    <g id="Layer_2" data-name="Layer 2">
      <g id="Isolation_Mode" data-name="Isolation Mode">
        <g>
          <g>
            <path class="cls-3" d="m1503.32,84.71c-1.69.18-4.21.47-7.47.89-6.54.83-16.11,2.18-28.21,4.23-12.11,2.03-26.75,4.81-43.42,8.39-8.33,1.84-17.18,3.81-26.45,6.09-4.64,1.1-9.39,2.34-14.24,3.56-2.42.64-4.87,1.28-7.35,1.93-2.48.65-4.98,1.31-7.5,2.01-2.52.69-5.07,1.39-7.64,2.1-2.56.73-5.15,1.47-7.77,2.22-5.23,1.47-10.52,3.09-15.91,4.69-10.76,3.3-21.84,6.78-33.13,10.63-11.31,3.78-22.82,7.93-34.53,12.28-2.92,1.11-5.85,2.23-8.79,3.35-1.47.56-2.95,1.13-4.42,1.69-1.47.58-2.95,1.17-4.43,1.76-2.96,1.17-5.92,2.35-8.91,3.53-2.96,1.22-5.94,2.45-8.93,3.69-23.9,9.87-48.11,21.02-72.14,33.21-1.5.76-3.01,1.52-4.51,2.28-1.49.78-2.99,1.56-4.49,2.35-2.99,1.57-5.98,3.14-8.98,4.72-1.5.77-2.98,1.6-4.47,2.41-1.49.81-2.97,1.63-4.46,2.44-1.49.81-2.97,1.63-4.46,2.44-1.49.81-2.98,1.62-4.45,2.47-2.95,1.68-5.89,3.36-8.85,5.04l-4.42,2.52-4.38,2.6c-2.92,1.73-5.84,3.47-8.76,5.2-2.91,1.74-5.78,3.56-8.67,5.33l-4.32,2.67c-1.44.9-2.89,1.77-4.3,2.7-2.84,1.83-5.69,3.67-8.53,5.5l-4.25,2.74c-1.41.92-2.8,1.88-4.2,2.82-2.79,1.88-5.59,3.76-8.37,5.63-2.8,1.85-5.52,3.82-8.27,5.73-2.74,1.92-5.47,3.84-8.2,5.76-2.69,1.97-5.38,3.93-8.06,5.89-1.34.98-2.68,1.96-4.01,2.94-1.33.98-2.68,1.94-3.98,2.96-21.11,15.89-41.03,32.42-59.44,49.16-18.42,16.74-35.33,33.7-50.59,50.34-1.89,2.1-3.77,4.18-5.63,6.24-.93,1.03-1.86,2.06-2.78,3.08-.92,1.03-1.86,2.03-2.74,3.08-3.56,4.15-7.06,8.24-10.51,12.25-.87.99-1.7,2.02-2.52,3.04-.83,1.02-1.65,2.03-2.47,3.04-1.64,2.01-3.26,4-4.87,5.98-3.26,3.9-6.26,7.91-9.26,11.76-6.06,7.65-11.46,15.31-16.73,22.43-.67.88-1.28,1.81-1.9,2.7-.62.9-1.24,1.8-1.86,2.69-1.23,1.77-2.44,3.53-3.63,5.25-1.19,1.72-2.37,3.42-3.53,5.09-.29.42-.58.83-.87,1.25-.28.42-.55.85-.83,1.27-.55.84-1.09,1.67-1.63,2.5-4.29,6.63-8.42,12.71-11.91,18.58-1.78,2.9-3.49,5.68-5.13,8.33-.41.66-.81,1.32-1.21,1.97-.2.32-.4.64-.59.96-.19.32-.36.62-.54.93-.7,1.23-1.39,2.43-2.06,3.6-2.68,4.66-5.06,8.81-7.14,12.43-2.31,4.19-4.28,7.75-5.88,10.64-3.19,5.78-4.89,8.86-4.89,8.86l-50.62,91.47-50.62-91.47s-1.7-3.08-4.89-8.86c-1.6-2.89-3.56-6.45-5.88-10.64-2.08-3.62-4.47-7.78-7.14-12.43-.67-1.17-1.35-2.37-2.06-3.6-.18-.31-.35-.62-.54-.93-.2-.32-.39-.64-.59-.96-.4-.65-.8-1.3-1.21-1.97-1.63-2.66-3.35-5.44-5.13-8.33-3.49-5.86-7.62-11.95-11.91-18.58-.54-.83-1.08-1.66-1.63-2.5-.27-.42-.55-.84-.83-1.27-.29-.41-.58-.83-.87-1.25-1.16-1.67-2.33-3.37-3.53-5.09-1.19-1.73-2.4-3.48-3.63-5.25-.61-.89-1.23-1.78-1.85-2.69-.63-.9-1.24-1.82-1.9-2.7-5.27-7.13-10.66-14.78-16.73-22.43-3-3.86-5.99-7.86-9.26-11.76-1.61-1.98-3.23-3.97-4.87-5.98-.82-1.01-1.64-2.02-2.47-3.04-.83-1.02-1.65-2.04-2.52-3.04-3.45-4.02-6.95-8.1-10.51-12.25-.88-1.05-1.81-2.05-2.73-3.08-.92-1.02-1.85-2.05-2.78-3.08-1.86-2.07-3.74-4.15-5.63-6.24-15.27-16.64-32.17-33.6-50.59-50.34-18.41-16.75-38.33-33.27-59.44-49.16-1.3-1.02-2.65-1.98-3.98-2.96-1.34-.98-2.67-1.96-4.01-2.94-2.68-1.96-5.37-3.93-8.06-5.89-2.73-1.92-5.46-3.84-8.2-5.76-2.75-1.91-5.46-3.89-8.27-5.73-2.79-1.88-5.58-3.75-8.37-5.63-1.4-.94-2.79-1.89-4.2-2.82l-4.25-2.74c-2.84-1.83-5.68-3.67-8.53-5.5-1.41-.93-2.87-1.8-4.3-2.7l-4.32-2.67c-2.89-1.77-5.75-3.6-8.67-5.33-2.92-1.73-5.84-3.47-8.76-5.2l-4.38-2.6-4.42-2.52c-2.95-1.68-5.9-3.36-8.85-5.04-1.47-.85-2.96-1.65-4.45-2.47-1.49-.81-2.97-1.63-4.46-2.44-1.49-.81-2.97-1.63-4.46-2.44-1.49-.81-2.97-1.64-4.47-2.41-3-1.58-5.99-3.15-8.98-4.72-1.5-.78-2.99-1.57-4.49-2.35-1.51-.76-3.01-1.52-4.51-2.28-24.03-12.18-48.24-23.33-72.14-33.21-2.99-1.23-5.97-2.46-8.93-3.69-2.98-1.18-5.95-2.36-8.91-3.53-1.48-.59-2.95-1.17-4.43-1.76-1.48-.57-2.95-1.13-4.42-1.69-2.95-1.12-5.88-2.24-8.79-3.35-11.7-4.34-23.22-8.5-34.52-12.28-11.29-3.85-22.37-7.33-33.13-10.63-5.39-1.6-10.68-3.22-15.91-4.69-2.61-.75-5.2-1.48-7.77-2.22-2.57-.71-5.12-1.41-7.64-2.1-2.52-.7-5.02-1.36-7.5-2.01-2.48-.65-4.93-1.29-7.35-1.93-4.86-1.21-9.6-2.46-14.24-3.56-9.27-2.29-18.12-4.26-26.45-6.09-16.67-3.58-31.31-6.36-43.42-8.39-12.11-2.05-21.68-3.4-28.21-4.23-3.27-.42-5.78-.71-7.47-.89C.88,84.53,0,84.44,0,84.44c0,0,.88-.05,2.58-.15,1.7-.09,4.23-.21,7.54-.32,6.61-.23,16.31-.43,28.68-.34,12.37.06,27.39.47,44.64,1.35,8.62.49,17.8,1.03,27.47,1.81,4.84.35,9.79.82,14.88,1.25,2.54.24,5.11.49,7.7.74,2.6.25,5.22.5,7.87.8,2.65.29,5.33.58,8.04.87,2.7.32,5.44.64,8.19.96,5.52.63,11.13,1.4,16.84,2.13,11.41,1.57,23.22,3.28,35.33,5.33,12.12,1.98,24.53,4.31,37.22,6.81,3.17.65,6.35,1.31,9.55,1.97,1.6.33,3.21.67,4.81,1,1.6.35,3.21.71,4.83,1.06,3.23.71,6.47,1.43,9.73,2.15,3.25.76,6.51,1.53,9.79,2.3,26.24,6.17,53.17,13.63,80.33,22.29,1.7.54,3.4,1.08,5.1,1.62,1.69.56,3.39,1.13,5.09,1.69,3.4,1.14,6.8,2.28,10.21,3.42,1.71.56,3.4,1.17,5.1,1.77,1.7.6,3.4,1.2,5.1,1.8,1.7.6,3.4,1.2,5.11,1.81,1.7.61,3.41,1.2,5.1,1.84,3.39,1.27,6.79,2.53,10.19,3.8l5.11,1.91,5.08,2c3.39,1.33,6.78,2.67,10.17,4,3.39,1.34,6.74,2.78,10.12,4.16l5.06,2.1c1.69.71,3.38,1.39,5.05,2.13,3.35,1.46,6.7,2.93,10.05,4.39l5.03,2.2c1.67.74,3.32,1.52,4.99,2.28,3.32,1.53,6.64,3.06,9.96,4.58,3.34,1.5,6.6,3.14,9.89,4.72,3.29,1.59,6.57,3.18,9.85,4.77,3.25,1.65,6.5,3.3,9.74,4.95,1.62.83,3.24,1.65,4.86,2.48,1.62.83,3.24,1.64,4.84,2.51,25.69,13.51,50.48,28.07,73.88,43.29,23.41,15.22,45.42,31.1,65.71,47.08,2.52,2.02,5.02,4.02,7.51,6.01,1.24,1,2.48,1.99,3.72,2.98,1.23.99,2.48,1.97,3.67,2.99,4.81,4.05,9.55,8.05,14.21,11.97,1.18.97,2.31,1.98,3.44,2.99,1.13,1,2.26,2,3.38,3,2.24,1.99,4.47,3.97,6.67,5.92,4.45,3.87,8.63,7.87,12.79,11.74,8.38,7.67,16.04,15.42,23.46,22.69.94.9,1.81,1.84,2.71,2.76.89.92,1.77,1.84,2.65,2.75.79.82,1.57,1.63,2.35,2.43.78-.81,1.56-1.62,2.35-2.43.88-.91,1.76-1.82,2.65-2.75.89-.92,1.77-1.86,2.71-2.76,7.42-7.27,15.07-15.02,23.46-22.69,4.16-3.87,8.34-7.86,12.79-11.74,2.2-1.96,4.43-3.93,6.67-5.92,1.12-.99,2.25-1.99,3.38-3,1.13-1,2.26-2.01,3.44-2.99,4.66-3.93,9.4-7.92,14.21-11.97,1.19-1.02,2.44-1.99,3.67-2.99,1.24-.99,2.47-1.98,3.72-2.98,2.49-1.99,4.99-4,7.51-6.01,20.29-15.98,42.31-31.87,65.71-47.08,23.4-15.22,48.19-29.78,73.88-43.29,1.59-.87,3.22-1.68,4.84-2.51,1.62-.83,3.24-1.65,4.86-2.48,3.24-1.65,6.49-3.3,9.74-4.95,3.28-1.59,6.56-3.18,9.85-4.77,3.29-1.58,6.55-3.22,9.89-4.72,3.32-1.53,6.64-3.05,9.96-4.58,1.66-.76,3.32-1.54,4.99-2.28l5.03-2.2c3.35-1.46,6.7-2.93,10.05-4.39,1.67-.74,3.36-1.43,5.05-2.13l5.06-2.1c3.38-1.39,6.73-2.82,10.12-4.16,3.39-1.33,6.78-2.67,10.17-4l5.08-2,5.11-1.91c3.4-1.27,6.8-2.53,10.19-3.8,1.69-.64,3.4-1.24,5.11-1.84,1.7-.6,3.41-1.2,5.11-1.81,1.7-.6,3.4-1.2,5.1-1.8,1.7-.6,3.39-1.21,5.1-1.77,3.41-1.14,6.81-2.28,10.21-3.42,1.7-.56,3.39-1.13,5.09-1.69,1.7-.54,3.4-1.08,5.1-1.62,27.16-8.65,54.1-16.12,80.33-22.29,3.28-.77,6.54-1.54,9.79-2.3,3.26-.72,6.5-1.43,9.73-2.15,1.61-.36,3.22-.71,4.83-1.06,1.61-.34,3.21-.67,4.81-1,3.2-.66,6.38-1.32,9.55-1.97,12.69-2.5,25.1-4.83,37.22-6.81,12.1-2.05,23.91-3.76,35.33-5.33,5.72-.74,11.32-1.51,16.84-2.13,2.76-.32,5.49-.65,8.19-.96,2.71-.29,5.39-.58,8.04-.87,2.65-.3,5.28-.55,7.87-.8,2.6-.25,5.16-.5,7.7-.74,5.08-.43,10.04-.9,14.88-1.25,9.67-.78,18.85-1.32,27.47-1.81,17.25-.88,32.28-1.28,44.64-1.35,12.37-.08,22.07.12,28.67.34,3.3.11,5.83.23,7.54.32,1.7.1,2.58.15,2.58.15,0,0-.88.09-2.57.27Z"/>
            <path class="cls-3" d="m1503.32,136.81c-1.69.18-4.21.47-7.47.89-6.54.83-16.11,2.18-28.21,4.23-12.11,2.03-26.75,4.81-43.42,8.39-8.33,1.84-17.18,3.81-26.45,6.09-4.64,1.1-9.39,2.34-14.24,3.56-2.42.64-4.87,1.28-7.35,1.93-2.48.65-4.98,1.31-7.5,2.01-2.52.69-5.07,1.39-7.64,2.1-2.56.73-5.15,1.47-7.77,2.22-5.23,1.47-10.52,3.09-15.91,4.69-10.76,3.3-21.84,6.78-33.13,10.63-11.31,3.78-22.82,7.93-34.53,12.28-2.92,1.11-5.85,2.23-8.79,3.35-1.47.56-2.95,1.13-4.42,1.69-1.47.58-2.95,1.17-4.43,1.76-2.96,1.17-5.92,2.35-8.91,3.53-2.96,1.22-5.94,2.45-8.93,3.69-23.9,9.87-48.11,21.02-72.14,33.21-1.5.76-3.01,1.52-4.51,2.28-1.49.78-2.99,1.57-4.49,2.35-2.99,1.57-5.98,3.14-8.98,4.72-1.5.77-2.98,1.6-4.47,2.41-1.49.81-2.97,1.63-4.46,2.44-1.49.81-2.97,1.63-4.46,2.44-1.49.81-2.98,1.62-4.45,2.47-2.95,1.68-5.89,3.36-8.85,5.04l-4.42,2.52-4.38,2.6c-2.92,1.73-5.84,3.47-8.76,5.2-2.91,1.74-5.78,3.56-8.67,5.33l-4.32,2.67c-1.44.9-2.89,1.77-4.3,2.7-2.84,1.83-5.69,3.67-8.53,5.5l-4.25,2.74c-1.41.92-2.8,1.88-4.2,2.82-2.79,1.88-5.59,3.76-8.37,5.63-2.8,1.85-5.52,3.82-8.27,5.73-2.74,1.92-5.47,3.84-8.2,5.76-2.69,1.97-5.38,3.93-8.06,5.89-1.34.98-2.68,1.96-4.01,2.94-1.33.98-2.68,1.94-3.98,2.96-21.11,15.89-41.03,32.42-59.44,49.16-18.42,16.74-35.33,33.7-50.59,50.34-1.89,2.1-3.77,4.18-5.63,6.24-.93,1.03-1.86,2.06-2.78,3.08-.92,1.03-1.86,2.03-2.74,3.08-3.56,4.15-7.06,8.24-10.51,12.25-.87.99-1.7,2.02-2.52,3.04-.83,1.02-1.65,2.03-2.47,3.04-1.64,2.01-3.26,4-4.87,5.98-3.26,3.9-6.26,7.91-9.26,11.76-6.06,7.65-11.46,15.31-16.73,22.43-.67.88-1.28,1.81-1.9,2.7-.62.9-1.24,1.8-1.86,2.69-1.23,1.77-2.44,3.53-3.63,5.25-1.19,1.72-2.37,3.42-3.53,5.09-.29.42-.58.83-.87,1.25-.28.42-.55.85-.83,1.27-.55.84-1.09,1.67-1.63,2.5-4.29,6.63-8.42,12.71-11.91,18.58-1.78,2.9-3.49,5.68-5.13,8.33-.41.66-.81,1.32-1.21,1.97-.2.32-.4.64-.59.96-.19.32-.36.62-.54.93-.7,1.23-1.39,2.43-2.06,3.6-2.68,4.66-5.06,8.81-7.14,12.43-2.31,4.19-4.28,7.75-5.88,10.64-3.19,5.78-4.89,8.86-4.89,8.86l-50.62,91.47-50.62-91.47s-1.7-3.08-4.89-8.86c-1.6-2.89-3.56-6.45-5.88-10.64-2.08-3.62-4.47-7.78-7.14-12.43-.67-1.17-1.35-2.37-2.06-3.6-.18-.31-.35-.62-.54-.93-.2-.32-.39-.64-.59-.96-.4-.65-.8-1.3-1.21-1.97-1.63-2.66-3.35-5.44-5.13-8.33-3.49-5.86-7.62-11.95-11.91-18.58-.54-.83-1.08-1.66-1.63-2.5-.27-.42-.55-.84-.83-1.27-.29-.41-.58-.83-.87-1.25-1.16-1.67-2.33-3.37-3.53-5.09-1.19-1.73-2.4-3.48-3.63-5.25-.61-.89-1.23-1.78-1.86-2.69-.63-.9-1.24-1.82-1.9-2.7-5.27-7.13-10.66-14.78-16.73-22.43-3-3.86-5.99-7.86-9.26-11.76-1.61-1.98-3.23-3.97-4.87-5.98-.82-1.01-1.64-2.02-2.47-3.04-.83-1.02-1.65-2.05-2.52-3.04-3.45-4.02-6.95-8.1-10.51-12.25-.88-1.05-1.81-2.05-2.73-3.08-.92-1.02-1.85-2.05-2.78-3.08-1.86-2.07-3.74-4.15-5.63-6.24-15.27-16.64-32.17-33.6-50.59-50.34-18.41-16.75-38.33-33.27-59.44-49.16-1.3-1.02-2.65-1.98-3.98-2.96-1.34-.98-2.67-1.96-4.01-2.94-2.68-1.96-5.37-3.93-8.06-5.89-2.73-1.92-5.46-3.84-8.2-5.76-2.75-1.91-5.46-3.89-8.27-5.73-2.79-1.88-5.58-3.75-8.37-5.63-1.4-.94-2.79-1.89-4.2-2.82l-4.25-2.74c-2.84-1.83-5.68-3.67-8.53-5.5-1.41-.93-2.87-1.8-4.3-2.7l-4.32-2.67c-2.89-1.77-5.75-3.6-8.67-5.33-2.92-1.73-5.84-3.47-8.76-5.2l-4.38-2.6-4.42-2.52c-2.95-1.68-5.9-3.36-8.85-5.04-1.47-.85-2.96-1.65-4.45-2.47-1.49-.81-2.97-1.63-4.46-2.44-1.49-.81-2.97-1.63-4.46-2.44-1.49-.81-2.97-1.64-4.47-2.41-3-1.58-5.99-3.15-8.98-4.72-1.5-.78-2.99-1.57-4.49-2.35-1.51-.76-3.01-1.52-4.51-2.28-24.03-12.18-48.24-23.33-72.14-33.21-2.99-1.23-5.97-2.46-8.93-3.69-2.98-1.18-5.95-2.36-8.91-3.53-1.48-.59-2.95-1.17-4.43-1.76-1.48-.57-2.95-1.13-4.42-1.69-2.95-1.12-5.88-2.24-8.79-3.35-11.7-4.34-23.22-8.5-34.52-12.28-11.29-3.85-22.37-7.33-33.13-10.63-5.39-1.6-10.68-3.22-15.91-4.69-2.61-.75-5.2-1.48-7.77-2.22-2.57-.71-5.12-1.41-7.64-2.1-2.52-.7-5.02-1.36-7.5-2.01-2.48-.65-4.93-1.29-7.35-1.93-4.86-1.21-9.6-2.46-14.24-3.56-9.27-2.29-18.12-4.26-26.45-6.09-16.67-3.58-31.31-6.36-43.42-8.39-12.11-2.05-21.68-3.4-28.21-4.23-3.27-.42-5.78-.71-7.47-.89-1.7-.18-2.57-.27-2.57-.27,0,0,.88-.05,2.58-.15,1.7-.09,4.23-.21,7.54-.32,6.61-.23,16.31-.43,28.68-.34,12.37.06,27.39.47,44.64,1.35,8.62.49,17.8,1.03,27.47,1.81,4.84.35,9.79.82,14.88,1.25,2.54.24,5.11.49,7.7.74,2.6.25,5.22.5,7.87.8,2.65.29,5.33.58,8.04.87,2.7.32,5.44.64,8.19.96,5.52.63,11.13,1.4,16.84,2.13,11.41,1.57,23.22,3.28,35.33,5.33,12.12,1.98,24.53,4.31,37.22,6.81,3.17.65,6.35,1.31,9.55,1.97,1.6.33,3.21.67,4.81,1,1.6.35,3.21.71,4.83,1.06,3.23.71,6.47,1.43,9.73,2.15,3.25.76,6.51,1.53,9.79,2.3,26.24,6.17,53.17,13.63,80.33,22.29,1.7.54,3.4,1.08,5.1,1.62,1.69.56,3.39,1.13,5.09,1.69,3.4,1.14,6.8,2.28,10.21,3.42,1.71.56,3.4,1.17,5.1,1.77,1.7.6,3.4,1.2,5.1,1.8,1.7.6,3.4,1.2,5.11,1.81,1.7.6,3.41,1.2,5.1,1.84,3.39,1.27,6.79,2.53,10.19,3.8l5.11,1.91,5.08,2c3.39,1.33,6.78,2.67,10.17,4,3.39,1.34,6.74,2.78,10.12,4.16l5.06,2.1c1.68.71,3.38,1.39,5.05,2.13,3.35,1.46,6.7,2.93,10.05,4.39l5.03,2.2c1.67.74,3.32,1.52,4.99,2.28,3.32,1.53,6.64,3.06,9.96,4.58,3.34,1.5,6.6,3.14,9.89,4.72,3.29,1.59,6.57,3.18,9.85,4.77,3.25,1.65,6.5,3.3,9.74,4.95,1.62.83,3.24,1.65,4.86,2.48,1.62.83,3.24,1.64,4.84,2.51,25.69,13.51,50.48,28.07,73.88,43.29,23.41,15.22,45.42,31.1,65.71,47.08,2.52,2.02,5.02,4.02,7.51,6.01,1.24,1,2.48,1.99,3.72,2.98,1.23.99,2.48,1.97,3.67,2.99,4.81,4.05,9.55,8.05,14.21,11.97,1.18.97,2.31,1.98,3.44,2.99,1.13,1,2.26,2,3.38,3,2.24,1.99,4.47,3.97,6.67,5.92,4.45,3.87,8.63,7.87,12.79,11.74,8.38,7.67,16.04,15.42,23.46,22.69.94.9,1.81,1.84,2.71,2.76.89.92,1.77,1.84,2.65,2.75.79.82,1.57,1.63,2.35,2.43.78-.81,1.56-1.62,2.35-2.43.88-.91,1.76-1.82,2.65-2.75.89-.92,1.77-1.86,2.71-2.76,7.42-7.27,15.07-15.02,23.46-22.69,4.16-3.87,8.34-7.86,12.79-11.74,2.2-1.96,4.43-3.93,6.67-5.92,1.12-.99,2.25-1.99,3.38-3,1.13-1,2.26-2.01,3.44-2.99,4.66-3.93,9.4-7.92,14.21-11.97,1.19-1.02,2.44-1.99,3.67-2.99,1.24-.99,2.47-1.98,3.72-2.98,2.49-1.99,4.99-4,7.51-6.01,20.29-15.98,42.31-31.87,65.71-47.08,23.4-15.22,48.19-29.78,73.88-43.29,1.59-.87,3.22-1.68,4.84-2.51,1.62-.83,3.24-1.65,4.86-2.48,3.24-1.65,6.49-3.3,9.74-4.95,3.28-1.59,6.56-3.18,9.85-4.77,3.29-1.58,6.55-3.22,9.89-4.72,3.32-1.53,6.64-3.05,9.96-4.58,1.66-.76,3.32-1.54,4.99-2.28l5.03-2.2c3.35-1.46,6.7-2.93,10.05-4.39,1.67-.74,3.36-1.43,5.05-2.13l5.06-2.1c3.38-1.39,6.73-2.82,10.12-4.16,3.39-1.33,6.78-2.67,10.17-4l5.08-2,5.11-1.91c3.4-1.27,6.8-2.53,10.19-3.8,1.69-.64,3.4-1.24,5.11-1.84,1.7-.6,3.41-1.2,5.11-1.81,1.7-.6,3.4-1.2,5.1-1.8,1.7-.6,3.39-1.21,5.1-1.77,3.41-1.14,6.81-2.28,10.21-3.42,1.7-.56,3.39-1.13,5.09-1.69,1.7-.54,3.4-1.08,5.1-1.62,27.16-8.65,54.1-16.12,80.33-22.29,3.28-.77,6.54-1.54,9.79-2.3,3.26-.72,6.5-1.43,9.73-2.15,1.61-.36,3.22-.71,4.83-1.06,1.61-.34,3.21-.67,4.81-1,3.2-.66,6.38-1.32,9.55-1.97,12.69-2.5,25.1-4.83,37.22-6.81,12.1-2.05,23.91-3.76,35.33-5.33,5.72-.74,11.32-1.51,16.84-2.13,2.76-.32,5.49-.65,8.19-.96,2.71-.29,5.39-.58,8.04-.87,2.65-.3,5.28-.55,7.87-.8,2.6-.25,5.16-.5,7.7-.74,5.08-.43,10.04-.9,14.88-1.25,9.67-.78,18.85-1.32,27.47-1.81,17.25-.88,32.28-1.28,44.64-1.35,12.37-.08,22.07.12,28.67.34,3.3.11,5.83.23,7.54.32,1.7.1,2.58.15,2.58.15,0,0-.88.09-2.57.27Z"/>
            <path class="cls-3" d="m1503.32,185.23c-1.69.18-4.21.47-7.47.89-6.54.83-16.11,2.18-28.21,4.23-12.11,2.03-26.75,4.81-43.42,8.39-8.33,1.84-17.18,3.81-26.45,6.09-4.64,1.1-9.39,2.34-14.24,3.56-2.42.64-4.87,1.28-7.35,1.93-2.48.65-4.98,1.31-7.5,2.01-2.52.69-5.07,1.39-7.64,2.1-2.56.73-5.15,1.47-7.77,2.22-5.23,1.47-10.52,3.09-15.91,4.69-10.76,3.3-21.84,6.78-33.13,10.63-11.31,3.78-22.82,7.93-34.53,12.28-2.92,1.11-5.85,2.23-8.79,3.35-1.47.56-2.95,1.13-4.42,1.69-1.47.58-2.95,1.17-4.43,1.76-2.96,1.17-5.92,2.35-8.91,3.53-2.96,1.22-5.94,2.45-8.93,3.69-23.9,9.87-48.11,21.02-72.14,33.21-1.5.76-3.01,1.52-4.51,2.28-1.49.78-2.99,1.56-4.49,2.35-2.99,1.57-5.98,3.14-8.98,4.72-1.5.77-2.98,1.6-4.47,2.41-1.49.81-2.97,1.63-4.46,2.44-1.49.81-2.97,1.63-4.46,2.44-1.49.82-2.98,1.62-4.45,2.47-2.95,1.68-5.89,3.36-8.85,5.04l-4.42,2.52-4.38,2.6c-2.92,1.73-5.84,3.47-8.76,5.2-2.91,1.74-5.78,3.56-8.67,5.33l-4.32,2.67c-1.44.9-2.89,1.77-4.3,2.7-2.84,1.83-5.69,3.67-8.53,5.5l-4.25,2.74c-1.41.92-2.8,1.88-4.2,2.82-2.79,1.88-5.59,3.76-8.37,5.63-2.8,1.85-5.52,3.82-8.27,5.73-2.74,1.92-5.47,3.84-8.2,5.76-2.69,1.97-5.38,3.93-8.06,5.89-1.34.98-2.68,1.96-4.01,2.94-1.33.98-2.68,1.94-3.98,2.96-21.11,15.89-41.03,32.42-59.44,49.16-18.42,16.74-35.33,33.7-50.59,50.34-1.89,2.1-3.77,4.18-5.63,6.24-.93,1.03-1.86,2.06-2.78,3.08-.92,1.03-1.86,2.03-2.74,3.08-3.56,4.15-7.06,8.24-10.51,12.25-.87.99-1.7,2.02-2.52,3.04-.83,1.02-1.65,2.03-2.47,3.04-1.64,2.01-3.26,4-4.87,5.98-3.26,3.9-6.26,7.91-9.26,11.76-6.06,7.65-11.46,15.31-16.73,22.43-.67.88-1.28,1.81-1.9,2.7-.62.9-1.24,1.8-1.86,2.69-1.23,1.77-2.44,3.53-3.63,5.25-1.19,1.72-2.37,3.42-3.53,5.09-.29.42-.58.83-.87,1.25-.28.42-.55.85-.83,1.27-.55.84-1.09,1.67-1.63,2.5-4.29,6.63-8.42,12.71-11.91,18.58-1.78,2.9-3.49,5.68-5.13,8.33-.41.66-.81,1.32-1.21,1.97-.2.32-.4.65-.59.96-.19.32-.36.62-.54.93-.7,1.23-1.39,2.43-2.06,3.6-2.68,4.66-5.06,8.81-7.14,12.43-2.31,4.19-4.28,7.75-5.88,10.64-3.19,5.78-4.89,8.86-4.89,8.86l-50.62,91.47-50.62-91.47s-1.7-3.08-4.89-8.86c-1.6-2.89-3.56-6.45-5.88-10.64-2.08-3.62-4.47-7.78-7.14-12.43-.67-1.17-1.35-2.37-2.06-3.6-.18-.31-.35-.62-.54-.93-.2-.32-.39-.64-.59-.96-.4-.65-.8-1.3-1.21-1.97-1.63-2.66-3.35-5.44-5.13-8.33-3.49-5.86-7.62-11.95-11.91-18.58-.54-.83-1.08-1.66-1.63-2.5-.27-.42-.55-.84-.83-1.27-.29-.41-.58-.83-.87-1.25-1.16-1.67-2.33-3.37-3.53-5.09-1.19-1.73-2.4-3.48-3.63-5.25-.61-.89-1.23-1.78-1.85-2.69-.63-.9-1.24-1.82-1.9-2.7-5.27-7.13-10.66-14.78-16.73-22.43-3-3.86-5.99-7.86-9.26-11.76-1.61-1.98-3.23-3.97-4.87-5.98-.82-1.01-1.64-2.02-2.47-3.04-.83-1.02-1.65-2.04-2.52-3.04-3.45-4.02-6.95-8.1-10.51-12.25-.88-1.05-1.81-2.05-2.73-3.08-.92-1.02-1.85-2.05-2.78-3.08-1.86-2.07-3.74-4.15-5.63-6.24-15.27-16.64-32.17-33.6-50.59-50.34-18.41-16.75-38.33-33.27-59.44-49.16-1.3-1.02-2.65-1.98-3.98-2.96-1.34-.98-2.67-1.96-4.01-2.94-2.68-1.96-5.37-3.93-8.06-5.89-2.73-1.92-5.46-3.84-8.2-5.76-2.75-1.91-5.46-3.89-8.27-5.73-2.79-1.88-5.58-3.75-8.37-5.63-1.4-.94-2.79-1.89-4.2-2.82l-4.25-2.74c-2.84-1.83-5.68-3.67-8.53-5.5-1.41-.93-2.87-1.8-4.3-2.7l-4.32-2.67c-2.89-1.77-5.75-3.6-8.67-5.33-2.92-1.73-5.84-3.47-8.76-5.2l-4.38-2.6-4.42-2.52c-2.95-1.68-5.9-3.36-8.85-5.04-1.47-.85-2.96-1.65-4.45-2.47-1.49-.81-2.97-1.63-4.46-2.44-1.49-.81-2.97-1.63-4.46-2.44-1.49-.81-2.97-1.64-4.47-2.41-3-1.58-5.99-3.15-8.98-4.72-1.5-.78-2.99-1.57-4.49-2.35-1.51-.76-3.01-1.52-4.51-2.28-24.03-12.18-48.24-23.33-72.14-33.21-2.99-1.23-5.97-2.46-8.93-3.69-2.98-1.18-5.95-2.36-8.91-3.53-1.48-.59-2.95-1.17-4.43-1.76-1.48-.57-2.95-1.13-4.42-1.69-2.95-1.12-5.88-2.24-8.79-3.35-11.7-4.34-23.22-8.5-34.52-12.28-11.29-3.85-22.37-7.33-33.13-10.63-5.39-1.6-10.68-3.22-15.91-4.69-2.61-.75-5.2-1.48-7.77-2.22-2.57-.71-5.12-1.41-7.64-2.1-2.52-.7-5.02-1.36-7.5-2.01-2.48-.65-4.93-1.29-7.35-1.93-4.86-1.21-9.6-2.46-14.24-3.56-9.27-2.29-18.12-4.26-26.45-6.09-16.67-3.58-31.31-6.36-43.42-8.39-12.11-2.05-21.68-3.4-28.21-4.23-3.27-.42-5.78-.71-7.47-.89-1.7-.18-2.57-.27-2.57-.27,0,0,.88-.05,2.58-.15,1.7-.09,4.23-.21,7.54-.32,6.61-.23,16.31-.43,28.68-.34,12.37.06,27.39.47,44.64,1.35,8.62.49,17.8,1.03,27.47,1.81,4.84.35,9.79.82,14.88,1.25,2.54.24,5.11.49,7.7.74,2.6.25,5.22.5,7.87.8,2.65.29,5.33.58,8.04.87,2.7.32,5.44.64,8.19.96,5.52.63,11.13,1.4,16.84,2.13,11.41,1.57,23.22,3.28,35.33,5.33,12.12,1.98,24.53,4.31,37.22,6.81,3.17.65,6.35,1.31,9.55,1.97,1.6.33,3.21.67,4.81,1,1.6.35,3.21.71,4.83,1.06,3.23.71,6.47,1.43,9.73,2.15,3.25.76,6.51,1.53,9.79,2.3,26.24,6.17,53.17,13.63,80.33,22.29,1.7.54,3.4,1.08,5.1,1.62,1.69.56,3.39,1.13,5.09,1.69,3.4,1.14,6.8,2.28,10.21,3.42,1.71.56,3.4,1.17,5.1,1.77,1.7.6,3.4,1.2,5.1,1.8,1.7.6,3.4,1.2,5.11,1.81,1.7.6,3.41,1.2,5.1,1.84,3.39,1.27,6.79,2.53,10.19,3.8l5.11,1.91,5.08,2c3.39,1.33,6.78,2.67,10.17,4,3.39,1.34,6.74,2.78,10.12,4.16l5.06,2.1c1.69.71,3.38,1.39,5.05,2.13,3.35,1.46,6.7,2.93,10.05,4.39l5.03,2.2c1.67.74,3.32,1.52,4.99,2.28,3.32,1.53,6.64,3.06,9.96,4.58,3.34,1.5,6.6,3.14,9.89,4.72,3.29,1.59,6.57,3.18,9.85,4.77,3.25,1.65,6.5,3.3,9.74,4.95,1.62.83,3.24,1.65,4.86,2.48,1.62.83,3.24,1.64,4.84,2.51,25.69,13.51,50.48,28.07,73.88,43.29,23.41,15.22,45.42,31.1,65.71,47.08,2.52,2.02,5.02,4.02,7.51,6.01,1.24,1,2.48,1.99,3.72,2.98,1.23.99,2.48,1.97,3.67,2.99,4.81,4.05,9.55,8.05,14.21,11.97,1.18.97,2.31,1.98,3.44,2.99,1.13,1,2.26,2,3.38,3,2.24,1.99,4.47,3.97,6.67,5.92,4.45,3.87,8.63,7.87,12.79,11.74,8.38,7.67,16.04,15.42,23.46,22.69.94.9,1.81,1.84,2.71,2.76.89.92,1.77,1.84,2.65,2.75.79.82,1.57,1.63,2.35,2.43.78-.81,1.56-1.62,2.35-2.43.88-.91,1.76-1.82,2.65-2.75.89-.92,1.77-1.86,2.71-2.76,7.42-7.27,15.07-15.02,23.46-22.69,4.16-3.87,8.34-7.86,12.79-11.74,2.2-1.96,4.43-3.93,6.67-5.92,1.12-.99,2.25-1.99,3.38-3,1.13-1,2.26-2.01,3.44-2.99,4.66-3.93,9.4-7.92,14.21-11.97,1.19-1.02,2.44-1.99,3.67-2.99,1.24-.99,2.47-1.98,3.72-2.98,2.49-1.99,4.99-4,7.51-6.01,20.29-15.98,42.31-31.87,65.71-47.08,23.4-15.22,48.19-29.78,73.88-43.29,1.59-.87,3.22-1.68,4.84-2.51,1.62-.83,3.24-1.65,4.86-2.48,3.24-1.65,6.49-3.3,9.74-4.95,3.28-1.59,6.56-3.18,9.85-4.77,3.29-1.58,6.55-3.22,9.89-4.72,3.32-1.53,6.64-3.05,9.96-4.58,1.66-.76,3.32-1.54,4.99-2.28l5.03-2.2c3.35-1.46,6.7-2.93,10.05-4.39,1.67-.74,3.36-1.43,5.05-2.13l5.06-2.1c3.38-1.39,6.73-2.82,10.12-4.16,3.39-1.34,6.78-2.67,10.17-4l5.08-2,5.11-1.91c3.4-1.27,6.8-2.53,10.19-3.8,1.69-.64,3.4-1.24,5.11-1.84,1.7-.6,3.41-1.2,5.11-1.81,1.7-.6,3.4-1.2,5.1-1.8,1.7-.6,3.39-1.21,5.1-1.77,3.41-1.14,6.81-2.28,10.21-3.42,1.7-.56,3.39-1.13,5.09-1.69,1.7-.54,3.4-1.08,5.1-1.62,27.16-8.65,54.1-16.12,80.33-22.29,3.28-.77,6.54-1.54,9.79-2.3,3.26-.72,6.5-1.43,9.73-2.15,1.61-.36,3.22-.71,4.83-1.06,1.61-.34,3.21-.67,4.81-1,3.2-.66,6.38-1.32,9.55-1.97,12.69-2.5,25.1-4.83,37.22-6.81,12.1-2.05,23.91-3.76,35.33-5.33,5.72-.74,11.32-1.51,16.84-2.13,2.76-.32,5.49-.64,8.19-.96,2.71-.29,5.39-.58,8.04-.87,2.65-.3,5.28-.55,7.87-.8,2.6-.25,5.16-.5,7.7-.74,5.08-.43,10.04-.9,14.88-1.25,9.67-.78,18.85-1.32,27.47-1.81,17.25-.88,32.28-1.28,44.64-1.35,12.37-.08,22.07.12,28.67.34,3.3.11,5.83.23,7.54.32,1.7.1,2.58.15,2.58.15,0,0-.88.09-2.57.27Z"/>
            <circle class="cls-2" cx="752.95" cy="135.71" r="135.71"/>
          </g>
          <g>
            <path class="cls-4" d="m2478.93,84.71c-1.69.18-4.21.47-7.47.89-6.54.83-16.11,2.18-28.21,4.23-12.11,2.03-26.75,4.81-43.42,8.39-8.33,1.84-17.18,3.81-26.45,6.09-4.64,1.1-9.38,2.34-14.24,3.56-2.42.64-4.87,1.28-7.35,1.93-2.48.65-4.98,1.31-7.5,2.01-2.52.69-5.07,1.39-7.64,2.1-2.56.73-5.15,1.47-7.77,2.22-5.23,1.47-10.52,3.09-15.91,4.69-10.76,3.3-21.84,6.78-33.13,10.63-11.31,3.78-22.82,7.93-34.53,12.28-2.91,1.11-5.85,2.23-8.79,3.35-1.47.56-2.95,1.13-4.42,1.69-1.47.58-2.95,1.17-4.43,1.76-2.95,1.17-5.92,2.35-8.9,3.53-2.96,1.22-5.94,2.45-8.93,3.69-23.9,9.87-48.11,21.02-72.14,33.21-1.5.76-3.01,1.52-4.51,2.28-1.49.78-2.99,1.56-4.49,2.35-2.99,1.57-5.98,3.14-8.98,4.72-1.5.77-2.98,1.6-4.47,2.41-1.48.81-2.97,1.63-4.46,2.44-1.49.81-2.97,1.63-4.46,2.44-1.49.81-2.98,1.62-4.45,2.47-2.95,1.68-5.89,3.36-8.85,5.04l-4.42,2.52-4.38,2.6c-2.92,1.73-5.84,3.47-8.76,5.2-2.91,1.74-5.78,3.56-8.67,5.33l-4.32,2.67c-1.44.9-2.89,1.77-4.3,2.7-2.84,1.83-5.69,3.67-8.53,5.5l-4.25,2.74c-1.41.92-2.8,1.88-4.2,2.82-2.79,1.88-5.59,3.76-8.38,5.63-2.8,1.85-5.52,3.82-8.27,5.73-2.74,1.92-5.47,3.84-8.21,5.76-2.69,1.97-5.38,3.93-8.06,5.89-1.34.98-2.68,1.96-4.01,2.94-1.33.98-2.68,1.94-3.98,2.96-21.11,15.89-41.03,32.42-59.44,49.16-18.42,16.74-35.33,33.7-50.59,50.34-1.89,2.1-3.77,4.18-5.63,6.24-.93,1.03-1.86,2.06-2.78,3.08-.92,1.03-1.86,2.03-2.74,3.08-3.56,4.15-7.06,8.24-10.51,12.25-.87.99-1.7,2.02-2.53,3.04-.83,1.02-1.65,2.03-2.47,3.04-1.64,2.01-3.26,4-4.87,5.98-3.26,3.9-6.26,7.91-9.26,11.76-6.06,7.65-11.46,15.31-16.73,22.43-.67.88-1.28,1.81-1.9,2.7-.62.9-1.24,1.8-1.86,2.69-1.23,1.77-2.44,3.53-3.63,5.25-1.19,1.72-2.37,3.42-3.53,5.09-.29.42-.58.83-.87,1.25-.28.42-.55.85-.83,1.27-.55.84-1.09,1.67-1.63,2.5-4.29,6.63-8.42,12.71-11.91,18.58-1.78,2.9-3.49,5.68-5.13,8.33-.41.66-.81,1.32-1.21,1.97-.2.32-.4.64-.59.96-.19.32-.36.62-.54.93-.7,1.23-1.39,2.43-2.06,3.6-2.67,4.66-5.06,8.81-7.14,12.43-2.31,4.19-4.28,7.75-5.88,10.64-3.19,5.78-4.89,8.86-4.89,8.86l-50.62,91.47-50.62-91.47s-1.7-3.08-4.89-8.86c-1.6-2.89-3.56-6.45-5.88-10.64-2.08-3.62-4.47-7.78-7.14-12.43-.67-1.17-1.35-2.37-2.06-3.6-.18-.31-.35-.62-.54-.93-.2-.32-.39-.64-.59-.96-.4-.65-.8-1.3-1.21-1.97-1.63-2.66-3.35-5.44-5.13-8.33-3.49-5.86-7.62-11.95-11.91-18.58-.54-.83-1.08-1.66-1.63-2.5-.28-.42-.55-.84-.83-1.27-.29-.41-.58-.83-.87-1.25-1.16-1.67-2.33-3.37-3.53-5.09-1.19-1.73-2.41-3.48-3.63-5.25-.61-.89-1.23-1.78-1.85-2.69-.63-.9-1.24-1.82-1.9-2.7-5.26-7.13-10.66-14.78-16.73-22.43-3-3.86-6-7.86-9.25-11.76-1.61-1.98-3.23-3.97-4.87-5.98-.82-1.01-1.64-2.02-2.47-3.04-.83-1.02-1.65-2.04-2.52-3.04-3.45-4.02-6.95-8.1-10.51-12.25-.88-1.05-1.81-2.05-2.73-3.08-.92-1.02-1.85-2.05-2.78-3.08-1.86-2.07-3.74-4.15-5.63-6.24-15.27-16.64-32.17-33.6-50.59-50.34-18.41-16.75-38.33-33.27-59.44-49.16-1.3-1.02-2.65-1.98-3.98-2.96-1.34-.98-2.67-1.96-4.01-2.94-2.68-1.96-5.37-3.93-8.06-5.89-2.73-1.92-5.46-3.84-8.2-5.76-2.75-1.91-5.46-3.89-8.27-5.73-2.79-1.88-5.58-3.75-8.37-5.63-1.4-.94-2.79-1.89-4.2-2.82l-4.25-2.74c-2.84-1.83-5.68-3.67-8.53-5.5-1.42-.93-2.87-1.8-4.3-2.7l-4.32-2.67c-2.89-1.77-5.75-3.6-8.67-5.33-2.92-1.73-5.84-3.47-8.76-5.2l-4.38-2.6-4.42-2.52c-2.95-1.68-5.9-3.36-8.85-5.04-1.47-.85-2.96-1.65-4.45-2.47-1.49-.81-2.97-1.63-4.46-2.44-1.49-.81-2.97-1.63-4.46-2.44-1.49-.81-2.97-1.64-4.47-2.41-3-1.58-5.99-3.15-8.98-4.72-1.5-.78-2.99-1.57-4.49-2.35-1.51-.76-3.01-1.52-4.51-2.28-24.03-12.18-48.24-23.33-72.14-33.21-2.99-1.23-5.97-2.46-8.93-3.69-2.98-1.18-5.95-2.36-8.91-3.53-1.48-.59-2.95-1.17-4.43-1.76-1.48-.57-2.95-1.13-4.42-1.69-2.95-1.12-5.88-2.24-8.79-3.35-11.7-4.34-23.22-8.5-34.52-12.28-11.29-3.85-22.37-7.33-33.13-10.63-5.39-1.6-10.68-3.22-15.91-4.69-2.61-.75-5.2-1.48-7.77-2.22-2.57-.71-5.12-1.41-7.64-2.1-2.52-.7-5.02-1.36-7.5-2.01-2.48-.65-4.93-1.29-7.35-1.93-4.86-1.21-9.6-2.46-14.24-3.56-9.27-2.29-18.12-4.26-26.45-6.09-16.67-3.58-31.31-6.36-43.42-8.39-12.11-2.05-21.68-3.4-28.21-4.23-3.27-.42-5.78-.71-7.47-.89-1.7-.18-2.57-.27-2.57-.27,0,0,.88-.05,2.58-.15,1.7-.09,4.23-.21,7.54-.32,6.61-.23,16.31-.43,28.68-.34,12.37.06,27.39.47,44.64,1.35,8.62.49,17.8,1.03,27.47,1.81,4.84.35,9.79.82,14.88,1.25,2.54.24,5.11.49,7.7.74,2.6.25,5.22.5,7.87.8,2.65.29,5.33.58,8.04.87,2.7.32,5.44.64,8.19.96,5.52.63,11.13,1.4,16.84,2.13,11.41,1.57,23.22,3.28,35.33,5.33,12.12,1.98,24.53,4.31,37.22,6.81,3.17.65,6.35,1.31,9.55,1.97,1.6.33,3.21.67,4.81,1,1.6.35,3.21.71,4.83,1.06,3.23.71,6.47,1.43,9.73,2.15,3.25.76,6.51,1.53,9.79,2.3,26.24,6.17,53.17,13.63,80.33,22.29,1.7.54,3.4,1.08,5.1,1.62,1.69.56,3.39,1.13,5.09,1.69,3.4,1.14,6.8,2.28,10.21,3.42,1.71.56,3.4,1.17,5.1,1.77,1.7.6,3.4,1.2,5.1,1.8,1.7.6,3.4,1.2,5.11,1.81,1.7.61,3.41,1.2,5.1,1.84,3.39,1.27,6.79,2.53,10.19,3.8l5.11,1.91,5.08,2c3.39,1.33,6.78,2.67,10.17,4,3.39,1.34,6.74,2.78,10.12,4.16l5.06,2.1c1.69.71,3.38,1.39,5.05,2.13,3.35,1.46,6.7,2.93,10.05,4.39l5.03,2.2c1.67.74,3.32,1.52,4.99,2.28,3.32,1.53,6.64,3.06,9.96,4.58,3.33,1.5,6.6,3.14,9.89,4.72,3.29,1.59,6.57,3.18,9.85,4.77,3.25,1.65,6.5,3.3,9.74,4.95,1.62.83,3.24,1.65,4.86,2.48,1.62.83,3.24,1.64,4.84,2.51,25.69,13.51,50.48,28.07,73.88,43.29,23.41,15.22,45.43,31.1,65.71,47.08,2.52,2.02,5.02,4.02,7.51,6.01,1.24,1,2.48,1.99,3.72,2.98,1.23.99,2.48,1.97,3.67,2.99,4.81,4.05,9.55,8.05,14.21,11.97,1.18.97,2.31,1.98,3.44,2.99,1.13,1,2.26,2,3.38,3,2.25,1.99,4.47,3.97,6.67,5.92,4.45,3.87,8.63,7.87,12.79,11.74,8.38,7.67,16.04,15.42,23.46,22.69.94.9,1.81,1.84,2.71,2.76.89.92,1.77,1.84,2.65,2.75.79.82,1.57,1.63,2.35,2.43.78-.81,1.56-1.62,2.35-2.43.88-.91,1.76-1.82,2.65-2.75.89-.92,1.77-1.86,2.71-2.76,7.42-7.27,15.07-15.02,23.45-22.69,4.16-3.87,8.34-7.86,12.79-11.74,2.2-1.96,4.43-3.93,6.67-5.92,1.12-.99,2.25-1.99,3.38-3,1.13-1,2.26-2.01,3.44-2.99,4.66-3.93,9.4-7.92,14.21-11.97,1.19-1.02,2.44-1.99,3.67-2.99,1.24-.99,2.47-1.98,3.72-2.98,2.49-1.99,4.99-4,7.51-6.01,20.29-15.98,42.31-31.87,65.71-47.08,23.4-15.22,48.19-29.78,73.88-43.29,1.59-.87,3.22-1.68,4.84-2.51,1.62-.83,3.24-1.65,4.86-2.48,3.24-1.65,6.49-3.3,9.74-4.95,3.28-1.59,6.56-3.18,9.85-4.77,3.29-1.58,6.55-3.22,9.89-4.72,3.32-1.53,6.64-3.05,9.96-4.58,1.66-.76,3.32-1.54,4.99-2.28l5.03-2.2c3.35-1.46,6.7-2.93,10.05-4.39,1.67-.74,3.37-1.43,5.05-2.13l5.06-2.1c3.38-1.39,6.73-2.82,10.12-4.16,3.39-1.33,6.78-2.67,10.17-4l5.08-2,5.11-1.91c3.4-1.27,6.8-2.53,10.19-3.8,1.69-.64,3.4-1.24,5.11-1.84,1.7-.6,3.41-1.2,5.11-1.81,1.7-.6,3.4-1.2,5.1-1.8,1.7-.6,3.39-1.21,5.1-1.77,3.41-1.14,6.81-2.28,10.21-3.42,1.7-.56,3.39-1.13,5.09-1.69,1.7-.54,3.4-1.08,5.1-1.62,27.16-8.65,54.1-16.12,80.33-22.29,3.28-.77,6.54-1.54,9.79-2.3,3.26-.72,6.5-1.43,9.73-2.15,1.61-.36,3.22-.71,4.82-1.06,1.61-.34,3.21-.67,4.81-1,3.2-.66,6.38-1.32,9.55-1.97,12.69-2.5,25.1-4.83,37.22-6.81,12.1-2.05,23.91-3.76,35.33-5.33,5.72-.74,11.32-1.51,16.84-2.13,2.76-.32,5.49-.65,8.19-.96,2.71-.29,5.38-.58,8.04-.87,2.65-.3,5.28-.55,7.87-.8,2.6-.25,5.16-.5,7.7-.74,5.08-.43,10.04-.9,14.88-1.25,9.67-.78,18.85-1.32,27.47-1.81,17.25-.88,32.28-1.28,44.64-1.35,12.37-.08,22.07.12,28.67.34,3.3.11,5.83.23,7.54.32,1.7.1,2.58.15,2.58.15,0,0-.88.09-2.57.27Z"/>
            <path class="cls-4" d="m2478.93,136.81c-1.69.18-4.21.47-7.47.89-6.54.83-16.11,2.18-28.21,4.23-12.11,2.03-26.75,4.81-43.42,8.39-8.33,1.84-17.18,3.81-26.45,6.09-4.64,1.1-9.39,2.34-14.24,3.56-2.42.64-4.87,1.28-7.35,1.93-2.48.65-4.98,1.31-7.5,2.01-2.52.69-5.07,1.39-7.64,2.1-2.56.73-5.15,1.47-7.77,2.22-5.23,1.47-10.52,3.09-15.91,4.69-10.76,3.3-21.84,6.78-33.13,10.63-11.31,3.78-22.82,7.93-34.53,12.28-2.91,1.11-5.85,2.23-8.79,3.35-1.47.56-2.95,1.13-4.42,1.69-1.47.58-2.95,1.17-4.43,1.76-2.95,1.17-5.92,2.35-8.91,3.53-2.96,1.22-5.94,2.45-8.93,3.69-23.9,9.87-48.11,21.02-72.14,33.21-1.5.76-3.01,1.52-4.51,2.28-1.49.78-2.99,1.57-4.49,2.35-2.99,1.57-5.98,3.14-8.98,4.72-1.5.77-2.98,1.6-4.47,2.41-1.49.81-2.97,1.63-4.46,2.44-1.49.81-2.97,1.63-4.46,2.44-1.49.81-2.98,1.62-4.45,2.47-2.95,1.68-5.89,3.36-8.85,5.04l-4.42,2.52-4.38,2.6c-2.92,1.73-5.84,3.47-8.76,5.2-2.91,1.74-5.78,3.56-8.67,5.33l-4.32,2.67c-1.44.9-2.89,1.77-4.3,2.7-2.84,1.83-5.69,3.67-8.53,5.5l-4.25,2.74c-1.41.92-2.8,1.88-4.2,2.82-2.79,1.88-5.59,3.76-8.37,5.63-2.8,1.85-5.52,3.82-8.27,5.73-2.74,1.92-5.47,3.84-8.2,5.76-2.69,1.97-5.38,3.93-8.06,5.89-1.34.98-2.68,1.96-4.01,2.94-1.33.98-2.68,1.94-3.98,2.96-21.11,15.89-41.03,32.42-59.44,49.16-18.42,16.74-35.33,33.7-50.59,50.34-1.89,2.1-3.77,4.18-5.63,6.24-.93,1.03-1.86,2.06-2.78,3.08-.92,1.03-1.86,2.03-2.73,3.08-3.56,4.15-7.06,8.24-10.51,12.25-.87.99-1.7,2.02-2.52,3.04-.83,1.02-1.65,2.03-2.47,3.04-1.64,2.01-3.26,4-4.87,5.98-3.26,3.9-6.26,7.91-9.26,11.76-6.06,7.65-11.46,15.31-16.73,22.43-.67.88-1.28,1.81-1.9,2.7-.62.9-1.24,1.8-1.86,2.69-1.23,1.77-2.44,3.53-3.63,5.25-1.19,1.72-2.37,3.42-3.53,5.09-.29.42-.58.83-.87,1.25-.28.42-.55.85-.83,1.27-.55.84-1.09,1.67-1.63,2.5-4.29,6.63-8.42,12.71-11.91,18.58-1.78,2.9-3.49,5.68-5.13,8.33-.41.66-.81,1.32-1.21,1.97-.2.32-.4.64-.59.96-.19.32-.36.62-.54.93-.7,1.23-1.39,2.43-2.06,3.6-2.67,4.66-5.06,8.81-7.14,12.43-2.31,4.19-4.28,7.75-5.88,10.64-3.19,5.78-4.89,8.86-4.89,8.86l-50.62,91.47-50.62-91.47s-1.7-3.08-4.89-8.86c-1.6-2.89-3.56-6.45-5.88-10.64-2.08-3.62-4.47-7.78-7.14-12.43-.67-1.17-1.35-2.37-2.06-3.6-.18-.31-.35-.62-.54-.93-.2-.32-.39-.64-.59-.96-.4-.65-.8-1.3-1.21-1.97-1.63-2.66-3.35-5.44-5.13-8.33-3.49-5.86-7.62-11.95-11.91-18.58-.54-.83-1.08-1.66-1.63-2.5-.27-.42-.55-.84-.83-1.27-.29-.41-.58-.83-.87-1.25-1.16-1.67-2.33-3.37-3.53-5.09-1.19-1.73-2.4-3.48-3.63-5.25-.61-.89-1.23-1.78-1.85-2.69-.63-.9-1.24-1.82-1.9-2.7-5.27-7.13-10.67-14.78-16.73-22.43-3-3.86-5.99-7.86-9.25-11.76-1.61-1.98-3.23-3.97-4.87-5.98-.82-1.01-1.64-2.02-2.47-3.04-.83-1.02-1.65-2.05-2.52-3.04-3.45-4.02-6.95-8.1-10.51-12.25-.88-1.05-1.81-2.05-2.73-3.08-.92-1.02-1.85-2.05-2.78-3.08-1.86-2.07-3.74-4.15-5.63-6.24-15.27-16.64-32.17-33.6-50.59-50.34-18.41-16.75-38.33-33.27-59.44-49.16-1.3-1.02-2.65-1.98-3.98-2.96-1.34-.98-2.67-1.96-4.01-2.94-2.68-1.96-5.37-3.93-8.06-5.89-2.73-1.92-5.46-3.84-8.2-5.76-2.75-1.91-5.46-3.89-8.27-5.73-2.79-1.88-5.58-3.75-8.37-5.63-1.4-.94-2.79-1.89-4.2-2.82l-4.25-2.74c-2.84-1.83-5.68-3.67-8.53-5.5-1.42-.93-2.87-1.8-4.3-2.7l-4.32-2.67c-2.89-1.77-5.75-3.6-8.67-5.33-2.92-1.73-5.84-3.47-8.76-5.2l-4.38-2.6-4.42-2.52c-2.95-1.68-5.9-3.36-8.85-5.04-1.47-.85-2.96-1.65-4.45-2.47-1.49-.81-2.97-1.63-4.46-2.44-1.49-.81-2.97-1.63-4.46-2.44-1.49-.81-2.97-1.64-4.47-2.41-3-1.58-5.99-3.15-8.98-4.72-1.5-.78-2.99-1.57-4.49-2.35-1.51-.76-3.01-1.52-4.51-2.28-24.03-12.18-48.24-23.33-72.14-33.21-2.99-1.23-5.97-2.46-8.93-3.69-2.98-1.18-5.95-2.36-8.91-3.53-1.48-.59-2.95-1.17-4.43-1.76-1.48-.57-2.95-1.13-4.42-1.69-2.95-1.12-5.88-2.24-8.79-3.35-11.7-4.34-23.22-8.5-34.52-12.28-11.29-3.85-22.37-7.33-33.13-10.63-5.39-1.6-10.68-3.22-15.91-4.69-2.61-.75-5.2-1.48-7.77-2.22-2.57-.71-5.12-1.41-7.64-2.1-2.52-.7-5.02-1.36-7.5-2.01-2.48-.65-4.93-1.29-7.35-1.93-4.86-1.21-9.6-2.46-14.24-3.56-9.27-2.29-18.12-4.26-26.45-6.09-16.67-3.58-31.31-6.36-43.42-8.39-12.11-2.05-21.68-3.4-28.21-4.23-3.27-.42-5.78-.71-7.47-.89-1.7-.18-2.57-.27-2.57-.27,0,0,.88-.05,2.58-.15,1.7-.09,4.23-.21,7.54-.32,6.61-.23,16.31-.43,28.68-.34,12.37.06,27.39.47,44.64,1.35,8.62.49,17.8,1.03,27.47,1.81,4.84.35,9.79.82,14.88,1.25,2.54.24,5.11.49,7.7.74,2.6.25,5.22.5,7.87.8,2.65.29,5.33.58,8.04.87,2.7.32,5.44.64,8.19.96,5.52.63,11.13,1.4,16.84,2.13,11.41,1.57,23.22,3.28,35.33,5.33,12.12,1.98,24.53,4.31,37.22,6.81,3.17.65,6.35,1.31,9.55,1.97,1.6.33,3.2.67,4.81,1,1.6.35,3.21.71,4.83,1.06,3.23.71,6.47,1.43,9.73,2.15,3.25.76,6.51,1.53,9.79,2.3,26.24,6.17,53.17,13.63,80.33,22.29,1.7.54,3.4,1.08,5.1,1.62,1.69.56,3.39,1.13,5.09,1.69,3.4,1.14,6.8,2.28,10.21,3.42,1.71.56,3.4,1.17,5.1,1.77,1.7.6,3.4,1.2,5.1,1.8,1.7.6,3.4,1.2,5.11,1.81,1.7.6,3.41,1.2,5.11,1.84,3.39,1.27,6.79,2.53,10.19,3.8l5.11,1.91,5.08,2c3.39,1.33,6.78,2.67,10.17,4,3.39,1.34,6.74,2.78,10.12,4.16l5.06,2.1c1.69.71,3.38,1.39,5.05,2.13,3.35,1.46,6.7,2.93,10.05,4.39l5.03,2.2c1.67.74,3.32,1.52,4.99,2.28,3.32,1.53,6.64,3.06,9.96,4.58,3.34,1.5,6.6,3.14,9.89,4.72,3.29,1.59,6.57,3.18,9.85,4.77,3.25,1.65,6.5,3.3,9.74,4.95,1.62.83,3.24,1.65,4.86,2.48,1.62.83,3.24,1.64,4.84,2.51,25.69,13.51,50.48,28.07,73.88,43.29,23.41,15.22,45.42,31.1,65.71,47.08,2.52,2.02,5.02,4.02,7.51,6.01,1.24,1,2.48,1.99,3.72,2.98,1.23.99,2.48,1.97,3.67,2.99,4.81,4.05,9.55,8.05,14.21,11.97,1.18.97,2.31,1.98,3.44,2.99,1.13,1,2.26,2,3.38,3,2.25,1.99,4.47,3.97,6.67,5.92,4.45,3.87,8.63,7.87,12.79,11.74,8.38,7.67,16.04,15.42,23.46,22.69.94.9,1.81,1.84,2.71,2.76.89.92,1.77,1.84,2.65,2.75.79.82,1.57,1.63,2.35,2.43.78-.81,1.56-1.62,2.34-2.43.88-.91,1.76-1.82,2.65-2.75.89-.92,1.77-1.86,2.71-2.76,7.42-7.27,15.07-15.02,23.46-22.69,4.16-3.87,8.34-7.86,12.79-11.74,2.2-1.96,4.43-3.93,6.67-5.92,1.12-.99,2.25-1.99,3.38-3,1.13-1,2.26-2.01,3.44-2.99,4.66-3.93,9.4-7.92,14.21-11.97,1.19-1.02,2.44-1.99,3.67-2.99,1.24-.99,2.47-1.98,3.72-2.98,2.48-1.99,4.99-4,7.51-6.01,20.29-15.98,42.31-31.87,65.71-47.08,23.4-15.22,48.19-29.78,73.88-43.29,1.59-.87,3.22-1.68,4.84-2.51,1.62-.83,3.24-1.65,4.86-2.48,3.24-1.65,6.49-3.3,9.74-4.95,3.28-1.59,6.56-3.18,9.85-4.77,3.29-1.58,6.55-3.22,9.89-4.72,3.32-1.53,6.64-3.05,9.96-4.58,1.66-.76,3.32-1.54,4.99-2.28l5.03-2.2c3.35-1.46,6.7-2.93,10.05-4.39,1.67-.74,3.36-1.43,5.05-2.13l5.06-2.1c3.38-1.39,6.73-2.82,10.12-4.16,3.39-1.33,6.78-2.67,10.17-4l5.08-2,5.11-1.91c3.4-1.27,6.8-2.53,10.19-3.8,1.69-.64,3.4-1.24,5.11-1.84,1.7-.6,3.41-1.2,5.11-1.81,1.7-.6,3.4-1.2,5.1-1.8,1.7-.6,3.39-1.21,5.1-1.77,3.41-1.14,6.81-2.28,10.21-3.42,1.7-.56,3.39-1.13,5.09-1.69,1.7-.54,3.4-1.08,5.1-1.62,27.16-8.65,54.1-16.12,80.33-22.29,3.28-.77,6.54-1.54,9.79-2.3,3.26-.72,6.5-1.43,9.73-2.15,1.61-.36,3.22-.71,4.83-1.06,1.61-.34,3.21-.67,4.81-1,3.2-.66,6.38-1.32,9.55-1.97,12.69-2.5,25.1-4.83,37.22-6.81,12.1-2.05,23.91-3.76,35.33-5.33,5.72-.74,11.32-1.51,16.84-2.13,2.76-.32,5.49-.65,8.19-.96,2.71-.29,5.39-.58,8.04-.87,2.65-.3,5.28-.55,7.87-.8,2.6-.25,5.16-.5,7.7-.74,5.08-.43,10.04-.9,14.88-1.25,9.67-.78,18.85-1.32,27.47-1.81,17.25-.88,32.28-1.28,44.64-1.35,12.37-.08,22.07.12,28.67.34,3.3.11,5.83.23,7.54.32,1.7.1,2.58.15,2.58.15,0,0-.88.09-2.57.27Z"/>
            <path class="cls-4" d="m2478.93,185.23c-1.69.18-4.21.47-7.47.89-6.54.83-16.11,2.18-28.21,4.23-12.11,2.03-26.75,4.81-43.42,8.39-8.33,1.84-17.18,3.81-26.45,6.09-4.64,1.1-9.38,2.34-14.24,3.56-2.42.64-4.87,1.28-7.35,1.93-2.48.65-4.98,1.31-7.5,2.01-2.52.69-5.07,1.39-7.64,2.1-2.56.73-5.15,1.47-7.77,2.22-5.23,1.47-10.52,3.09-15.91,4.69-10.76,3.3-21.84,6.78-33.13,10.63-11.31,3.78-22.82,7.93-34.53,12.28-2.91,1.11-5.85,2.23-8.79,3.35-1.47.56-2.95,1.13-4.42,1.69-1.47.58-2.95,1.17-4.43,1.76-2.95,1.17-5.92,2.35-8.9,3.53-2.96,1.22-5.94,2.45-8.93,3.69-23.9,9.87-48.11,21.02-72.14,33.21-1.5.76-3.01,1.52-4.51,2.28-1.49.78-2.99,1.56-4.49,2.35-2.99,1.57-5.98,3.14-8.98,4.72-1.5.77-2.98,1.6-4.47,2.41-1.48.81-2.97,1.63-4.46,2.44-1.49.81-2.97,1.63-4.46,2.44-1.49.82-2.98,1.62-4.45,2.47-2.95,1.68-5.89,3.36-8.85,5.04l-4.42,2.52-4.38,2.6c-2.92,1.73-5.84,3.47-8.76,5.2-2.91,1.74-5.78,3.56-8.67,5.33l-4.32,2.67c-1.44.9-2.89,1.77-4.3,2.7-2.84,1.83-5.69,3.67-8.53,5.5l-4.25,2.74c-1.41.92-2.8,1.88-4.2,2.82-2.79,1.88-5.59,3.76-8.38,5.63-2.8,1.85-5.52,3.82-8.27,5.73-2.74,1.92-5.47,3.84-8.21,5.76-2.69,1.97-5.38,3.93-8.06,5.89-1.34.98-2.68,1.96-4.01,2.94-1.33.98-2.68,1.94-3.98,2.96-21.11,15.89-41.03,32.42-59.44,49.16-18.42,16.74-35.33,33.7-50.59,50.34-1.89,2.1-3.77,4.18-5.63,6.24-.93,1.03-1.86,2.06-2.78,3.08-.92,1.03-1.86,2.03-2.74,3.08-3.56,4.15-7.06,8.24-10.51,12.25-.87.99-1.7,2.02-2.53,3.04-.83,1.02-1.65,2.03-2.47,3.04-1.64,2.01-3.26,4-4.87,5.98-3.26,3.9-6.26,7.91-9.26,11.76-6.06,7.65-11.46,15.31-16.73,22.43-.67.88-1.28,1.81-1.9,2.7-.62.9-1.24,1.8-1.86,2.69-1.23,1.77-2.44,3.53-3.63,5.25-1.19,1.72-2.37,3.42-3.53,5.09-.29.42-.58.83-.87,1.25-.28.42-.55.85-.83,1.27-.55.84-1.09,1.67-1.63,2.5-4.29,6.63-8.42,12.71-11.91,18.58-1.78,2.9-3.49,5.68-5.13,8.33-.41.66-.81,1.32-1.21,1.97-.2.32-.4.65-.59.96-.19.32-.36.62-.54.93-.7,1.23-1.39,2.43-2.06,3.6-2.67,4.66-5.06,8.81-7.14,12.43-2.31,4.19-4.28,7.75-5.88,10.64-3.19,5.78-4.89,8.86-4.89,8.86l-50.62,91.47-50.62-91.47s-1.7-3.08-4.89-8.86c-1.6-2.89-3.56-6.45-5.88-10.64-2.08-3.62-4.47-7.78-7.14-12.43-.67-1.17-1.35-2.37-2.06-3.6-.18-.31-.35-.62-.54-.93-.2-.32-.39-.64-.59-.96-.4-.65-.8-1.3-1.21-1.97-1.63-2.66-3.35-5.44-5.13-8.33-3.49-5.86-7.62-11.95-11.91-18.58-.54-.83-1.08-1.66-1.63-2.5-.28-.42-.55-.84-.83-1.27-.29-.41-.58-.83-.87-1.25-1.16-1.67-2.33-3.37-3.53-5.09-1.19-1.73-2.41-3.48-3.63-5.25-.61-.89-1.23-1.78-1.85-2.69-.63-.9-1.24-1.82-1.9-2.7-5.26-7.13-10.66-14.78-16.73-22.43-3-3.86-6-7.86-9.25-11.76-1.61-1.98-3.23-3.97-4.87-5.98-.82-1.01-1.64-2.02-2.47-3.04-.83-1.02-1.65-2.04-2.52-3.04-3.45-4.02-6.95-8.1-10.51-12.25-.88-1.05-1.81-2.05-2.73-3.08-.92-1.02-1.85-2.05-2.78-3.08-1.86-2.07-3.74-4.15-5.63-6.24-15.27-16.64-32.17-33.6-50.59-50.34-18.41-16.75-38.33-33.27-59.44-49.16-1.3-1.02-2.65-1.98-3.98-2.96-1.34-.98-2.67-1.96-4.01-2.94-2.68-1.96-5.37-3.93-8.06-5.89-2.73-1.92-5.46-3.84-8.2-5.76-2.75-1.91-5.46-3.89-8.27-5.73-2.79-1.88-5.58-3.75-8.37-5.63-1.4-.94-2.79-1.89-4.2-2.82l-4.25-2.74c-2.84-1.83-5.68-3.67-8.53-5.5-1.42-.93-2.87-1.8-4.3-2.7l-4.32-2.67c-2.89-1.77-5.75-3.6-8.67-5.33-2.92-1.73-5.84-3.47-8.76-5.2l-4.38-2.6-4.42-2.52c-2.95-1.68-5.9-3.36-8.85-5.04-1.47-.85-2.96-1.65-4.45-2.47-1.49-.81-2.97-1.63-4.46-2.44-1.49-.81-2.97-1.63-4.46-2.44-1.49-.81-2.97-1.64-4.47-2.41-3-1.58-5.99-3.15-8.98-4.72-1.5-.78-2.99-1.57-4.49-2.35-1.51-.76-3.01-1.52-4.51-2.28-24.03-12.18-48.24-23.33-72.14-33.21-2.99-1.23-5.97-2.46-8.93-3.69-2.98-1.18-5.95-2.36-8.91-3.53-1.48-.59-2.95-1.17-4.43-1.76-1.48-.57-2.95-1.13-4.42-1.69-2.95-1.12-5.88-2.24-8.79-3.35-11.7-4.34-23.22-8.5-34.52-12.28-11.29-3.85-22.37-7.33-33.13-10.63-5.39-1.6-10.68-3.22-15.91-4.69-2.61-.75-5.2-1.48-7.77-2.22-2.57-.71-5.12-1.41-7.64-2.1-2.52-.7-5.02-1.36-7.5-2.01-2.48-.65-4.93-1.29-7.35-1.93-4.86-1.21-9.6-2.46-14.24-3.56-9.27-2.29-18.12-4.26-26.45-6.09-16.67-3.58-31.31-6.36-43.42-8.39-12.11-2.05-21.68-3.4-28.21-4.23-3.27-.42-5.78-.71-7.47-.89-1.7-.18-2.57-.27-2.57-.27,0,0,.88-.05,2.58-.15,1.7-.09,4.23-.21,7.54-.32,6.61-.23,16.31-.43,28.68-.34,12.37.06,27.39.47,44.64,1.35,8.62.49,17.8,1.03,27.47,1.81,4.84.35,9.79.82,14.88,1.25,2.54.24,5.11.49,7.7.74,2.6.25,5.22.5,7.87.8,2.65.29,5.33.58,8.04.87,2.7.32,5.44.64,8.19.96,5.52.63,11.13,1.4,16.84,2.13,11.41,1.57,23.22,3.28,35.33,5.33,12.12,1.98,24.53,4.31,37.22,6.81,3.17.65,6.35,1.31,9.55,1.97,1.6.33,3.21.67,4.81,1,1.6.35,3.21.71,4.83,1.06,3.23.71,6.47,1.43,9.73,2.15,3.25.76,6.51,1.53,9.79,2.3,26.24,6.17,53.17,13.63,80.33,22.29,1.7.54,3.4,1.08,5.1,1.62,1.69.56,3.39,1.13,5.09,1.69,3.4,1.14,6.8,2.28,10.21,3.42,1.71.56,3.4,1.17,5.1,1.77,1.7.6,3.4,1.2,5.1,1.8,1.7.6,3.4,1.2,5.11,1.81,1.7.6,3.41,1.2,5.1,1.84,3.39,1.27,6.79,2.53,10.19,3.8l5.11,1.91,5.08,2c3.39,1.33,6.78,2.67,10.17,4,3.39,1.34,6.74,2.78,10.12,4.16l5.06,2.1c1.69.71,3.38,1.39,5.05,2.13,3.35,1.46,6.7,2.93,10.05,4.39l5.03,2.2c1.67.74,3.32,1.52,4.99,2.28,3.32,1.53,6.64,3.06,9.96,4.58,3.33,1.5,6.6,3.14,9.89,4.72,3.29,1.59,6.57,3.18,9.85,4.77,3.25,1.65,6.5,3.3,9.74,4.95,1.62.83,3.24,1.65,4.86,2.48,1.62.83,3.24,1.64,4.84,2.51,25.69,13.51,50.48,28.07,73.88,43.29,23.41,15.22,45.43,31.1,65.71,47.08,2.52,2.02,5.02,4.02,7.51,6.01,1.24,1,2.48,1.99,3.72,2.98,1.23.99,2.48,1.97,3.67,2.99,4.81,4.05,9.55,8.05,14.21,11.97,1.18.97,2.31,1.98,3.44,2.99,1.13,1,2.26,2,3.38,3,2.25,1.99,4.47,3.97,6.67,5.92,4.45,3.87,8.63,7.87,12.79,11.74,8.38,7.67,16.04,15.42,23.46,22.69.94.9,1.81,1.84,2.71,2.76.89.92,1.77,1.84,2.65,2.75.79.82,1.57,1.63,2.35,2.43.78-.81,1.56-1.62,2.35-2.43.88-.91,1.76-1.82,2.65-2.75.89-.92,1.77-1.86,2.71-2.76,7.42-7.27,15.07-15.02,23.45-22.69,4.16-3.87,8.34-7.86,12.79-11.74,2.2-1.96,4.43-3.93,6.67-5.92,1.12-.99,2.25-1.99,3.38-3,1.13-1,2.26-2.01,3.44-2.99,4.66-3.93,9.4-7.92,14.21-11.97,1.19-1.02,2.44-1.99,3.67-2.99,1.24-.99,2.47-1.98,3.72-2.98,2.49-1.99,4.99-4,7.51-6.01,20.29-15.98,42.31-31.87,65.71-47.08,23.4-15.22,48.19-29.78,73.88-43.29,1.59-.87,3.22-1.68,4.84-2.51,1.62-.83,3.24-1.65,4.86-2.48,3.24-1.65,6.49-3.3,9.74-4.95,3.28-1.59,6.56-3.18,9.85-4.77,3.29-1.58,6.55-3.22,9.89-4.72,3.32-1.53,6.64-3.05,9.96-4.58,1.66-.76,3.32-1.54,4.99-2.28l5.03-2.2c3.35-1.46,6.7-2.93,10.05-4.39,1.67-.74,3.37-1.43,5.05-2.13l5.06-2.1c3.38-1.39,6.73-2.82,10.12-4.16,3.39-1.34,6.78-2.67,10.17-4l5.08-2,5.11-1.91c3.4-1.27,6.8-2.53,10.19-3.8,1.69-.64,3.4-1.24,5.11-1.84,1.7-.6,3.41-1.2,5.11-1.81,1.7-.6,3.4-1.2,5.1-1.8,1.7-.6,3.39-1.21,5.1-1.77,3.41-1.14,6.81-2.28,10.21-3.42,1.7-.56,3.39-1.13,5.09-1.69,1.7-.54,3.4-1.08,5.1-1.62,27.16-8.65,54.1-16.12,80.33-22.29,3.28-.77,6.54-1.54,9.79-2.3,3.26-.72,6.5-1.43,9.73-2.15,1.61-.36,3.22-.71,4.82-1.06,1.61-.34,3.21-.67,4.81-1,3.2-.66,6.38-1.32,9.55-1.97,12.69-2.5,25.1-4.83,37.22-6.81,12.1-2.05,23.91-3.76,35.33-5.33,5.72-.74,11.32-1.51,16.84-2.13,2.76-.32,5.49-.64,8.19-.96,2.71-.29,5.38-.58,8.04-.87,2.65-.3,5.28-.55,7.87-.8,2.6-.25,5.16-.5,7.7-.74,5.08-.43,10.04-.9,14.88-1.25,9.67-.78,18.85-1.32,27.47-1.81,17.25-.88,32.28-1.28,44.64-1.35,12.37-.08,22.07.12,28.67.34,3.3.11,5.83.23,7.54.32,1.7.1,2.58.15,2.58.15,0,0-.88.09-2.57.27Z"/>
            <circle class="cls-1" cx="1728.56" cy="135.71" r="135.71"/>
          </g>
          <g>
            <path class="cls-5" d="m3367.59,84.71c-1.69.18-4.21.47-7.47.89-6.54.83-16.11,2.18-28.21,4.23-12.11,2.03-26.75,4.81-43.42,8.39-8.33,1.84-17.18,3.81-26.45,6.09-4.64,1.1-9.38,2.34-14.24,3.56-2.42.64-4.87,1.28-7.35,1.93-2.48.65-4.98,1.31-7.5,2.01-2.52.69-5.07,1.39-7.64,2.1-2.56.73-5.15,1.47-7.77,2.22-5.23,1.47-10.52,3.09-15.91,4.69-10.76,3.3-21.84,6.78-33.13,10.63-11.31,3.78-22.82,7.93-34.53,12.28-2.91,1.11-5.85,2.23-8.79,3.35-1.47.56-2.95,1.13-4.42,1.69-1.47.58-2.95,1.17-4.43,1.76-2.96,1.17-5.92,2.35-8.9,3.53-2.96,1.22-5.94,2.45-8.93,3.69-23.9,9.87-48.11,21.02-72.14,33.21-1.5.76-3.01,1.52-4.51,2.28-1.49.78-2.99,1.56-4.49,2.35-2.99,1.57-5.98,3.14-8.98,4.72-1.5.77-2.98,1.6-4.47,2.41-1.48.81-2.97,1.63-4.46,2.44-1.49.81-2.97,1.63-4.46,2.44-1.49.81-2.98,1.62-4.45,2.47-2.95,1.68-5.89,3.36-8.85,5.04l-4.42,2.52-4.38,2.6c-2.92,1.73-5.84,3.47-8.76,5.2-2.91,1.74-5.78,3.56-8.67,5.33l-4.32,2.67c-1.44.9-2.89,1.77-4.3,2.7-2.84,1.83-5.69,3.67-8.53,5.5l-4.25,2.74c-1.41.92-2.8,1.88-4.2,2.82-2.8,1.88-5.59,3.76-8.38,5.63-2.8,1.85-5.52,3.82-8.27,5.73-2.74,1.92-5.47,3.84-8.21,5.76-2.69,1.97-5.38,3.93-8.06,5.89-1.34.98-2.68,1.96-4.01,2.94-1.33.98-2.68,1.94-3.98,2.96-21.11,15.89-41.03,32.42-59.44,49.16-18.42,16.74-35.33,33.7-50.59,50.34-1.89,2.1-3.77,4.18-5.63,6.24-.93,1.03-1.86,2.06-2.78,3.08-.92,1.03-1.86,2.03-2.74,3.08-3.56,4.15-7.06,8.24-10.51,12.25-.87.99-1.7,2.02-2.53,3.04-.83,1.02-1.65,2.03-2.47,3.04-1.64,2.01-3.26,4-4.87,5.98-3.26,3.9-6.26,7.91-9.26,11.76-6.06,7.65-11.46,15.31-16.73,22.43-.67.88-1.28,1.81-1.9,2.7-.62.9-1.24,1.8-1.86,2.69-1.23,1.77-2.44,3.53-3.63,5.25-1.19,1.72-2.37,3.42-3.53,5.09-.29.42-.58.83-.87,1.25-.28.42-.55.85-.83,1.27-.55.84-1.09,1.67-1.63,2.5-4.29,6.63-8.42,12.71-11.91,18.58-1.78,2.9-3.49,5.68-5.13,8.33-.41.66-.81,1.32-1.21,1.97-.2.32-.4.64-.59.96-.19.32-.36.62-.54.93-.7,1.23-1.39,2.43-2.06,3.6-2.67,4.66-5.06,8.81-7.14,12.43-2.31,4.19-4.28,7.75-5.88,10.64-3.19,5.78-4.89,8.86-4.89,8.86l-50.62,91.47-50.62-91.47s-1.7-3.08-4.89-8.86c-1.6-2.89-3.56-6.45-5.88-10.64-2.08-3.62-4.47-7.78-7.14-12.43-.67-1.17-1.35-2.37-2.06-3.6-.18-.31-.35-.62-.54-.93-.2-.32-.39-.64-.59-.96-.4-.65-.8-1.3-1.21-1.97-1.63-2.66-3.35-5.44-5.13-8.33-3.49-5.86-7.62-11.95-11.91-18.58-.54-.83-1.08-1.66-1.63-2.5-.28-.42-.55-.84-.83-1.27-.29-.41-.58-.83-.87-1.25-1.16-1.67-2.33-3.37-3.53-5.09-1.19-1.73-2.41-3.48-3.63-5.25-.61-.89-1.23-1.78-1.85-2.69-.63-.9-1.24-1.82-1.9-2.7-5.26-7.13-10.66-14.78-16.73-22.43-3-3.86-6-7.86-9.25-11.76-1.61-1.98-3.23-3.97-4.87-5.98-.82-1.01-1.64-2.02-2.47-3.04-.83-1.02-1.65-2.04-2.52-3.04-3.45-4.02-6.95-8.1-10.51-12.25-.88-1.05-1.81-2.05-2.73-3.08-.92-1.02-1.85-2.05-2.78-3.08-1.86-2.07-3.74-4.15-5.63-6.24-15.26-16.64-32.17-33.6-50.59-50.34-18.41-16.75-38.33-33.27-59.44-49.16-1.3-1.02-2.65-1.98-3.98-2.96-1.34-.98-2.67-1.96-4.01-2.94-2.68-1.96-5.37-3.93-8.06-5.89-2.73-1.92-5.46-3.84-8.2-5.76-2.75-1.91-5.46-3.89-8.27-5.73-2.79-1.88-5.58-3.75-8.37-5.63-1.4-.94-2.79-1.89-4.2-2.82l-4.26-2.74c-2.84-1.83-5.68-3.67-8.53-5.5-1.41-.93-2.87-1.8-4.3-2.7l-4.32-2.67c-2.89-1.77-5.75-3.6-8.67-5.33-2.92-1.73-5.84-3.47-8.75-5.2l-4.38-2.6-4.42-2.52c-2.95-1.68-5.9-3.36-8.85-5.04-1.47-.85-2.96-1.65-4.45-2.47-1.49-.81-2.97-1.63-4.46-2.44-1.49-.81-2.97-1.63-4.46-2.44-1.49-.81-2.97-1.64-4.47-2.41-3-1.58-5.99-3.15-8.98-4.72-1.5-.78-2.99-1.57-4.49-2.35-1.5-.76-3.01-1.52-4.51-2.28-24.03-12.18-48.24-23.33-72.14-33.21-2.99-1.23-5.97-2.46-8.93-3.69-2.98-1.18-5.95-2.36-8.91-3.53-1.48-.59-2.95-1.17-4.43-1.76-1.48-.57-2.95-1.13-4.42-1.69-2.95-1.12-5.88-2.24-8.79-3.35-11.7-4.34-23.22-8.5-34.53-12.28-11.29-3.85-22.37-7.33-33.13-10.63-5.39-1.6-10.68-3.22-15.91-4.69-2.61-.75-5.2-1.48-7.77-2.22-2.57-.71-5.12-1.41-7.64-2.1-2.52-.7-5.02-1.36-7.5-2.01-2.48-.65-4.93-1.29-7.35-1.93-4.86-1.21-9.6-2.46-14.24-3.56-9.27-2.29-18.12-4.26-26.45-6.09-16.67-3.58-31.31-6.36-43.42-8.39-12.11-2.05-21.68-3.4-28.21-4.23-3.27-.42-5.78-.71-7.47-.89-1.7-.18-2.57-.27-2.57-.27,0,0,.88-.05,2.58-.15,1.7-.09,4.23-.21,7.54-.32,6.61-.23,16.31-.43,28.68-.34,12.37.06,27.39.47,44.64,1.35,8.62.49,17.8,1.03,27.47,1.81,4.84.35,9.79.82,14.88,1.25,2.54.24,5.11.49,7.7.74,2.6.25,5.22.5,7.87.8,2.65.29,5.33.58,8.04.87,2.7.32,5.44.64,8.19.96,5.52.63,11.13,1.4,16.84,2.13,11.42,1.57,23.22,3.28,35.33,5.33,12.12,1.98,24.53,4.31,37.22,6.81,3.17.65,6.35,1.31,9.55,1.97,1.6.33,3.21.67,4.81,1,1.6.35,3.21.71,4.83,1.06,3.23.71,6.47,1.43,9.73,2.15,3.25.76,6.51,1.53,9.79,2.3,26.23,6.17,53.17,13.63,80.33,22.29,1.7.54,3.4,1.08,5.1,1.62,1.7.56,3.39,1.13,5.09,1.69,3.4,1.14,6.8,2.28,10.21,3.42,1.71.56,3.4,1.17,5.1,1.77,1.7.6,3.4,1.2,5.1,1.8,1.7.6,3.4,1.2,5.11,1.81,1.7.61,3.41,1.2,5.1,1.84,3.39,1.27,6.79,2.53,10.19,3.8l5.11,1.91,5.08,2c3.39,1.33,6.78,2.67,10.17,4,3.39,1.34,6.74,2.78,10.12,4.16l5.06,2.1c1.68.71,3.38,1.39,5.05,2.13,3.35,1.46,6.7,2.93,10.05,4.39l5.03,2.2c1.67.74,3.32,1.52,4.99,2.28,3.32,1.53,6.64,3.06,9.96,4.58,3.33,1.5,6.59,3.14,9.89,4.72,3.29,1.59,6.57,3.18,9.85,4.77,3.25,1.65,6.5,3.3,9.74,4.95,1.62.83,3.24,1.65,4.86,2.48,1.62.83,3.24,1.64,4.84,2.51,25.69,13.51,50.48,28.07,73.88,43.29,23.41,15.22,45.42,31.1,65.71,47.08,2.52,2.02,5.02,4.02,7.51,6.01,1.24,1,2.48,1.99,3.72,2.98,1.23.99,2.48,1.97,3.67,2.99,4.81,4.05,9.55,8.05,14.21,11.97,1.18.97,2.31,1.98,3.44,2.99,1.13,1,2.26,2,3.38,3,2.25,1.99,4.47,3.97,6.67,5.92,4.45,3.87,8.63,7.87,12.79,11.74,8.38,7.67,16.04,15.42,23.46,22.69.94.9,1.81,1.84,2.71,2.76.89.92,1.77,1.84,2.65,2.75.79.82,1.57,1.63,2.35,2.43.78-.81,1.56-1.62,2.35-2.43.88-.91,1.76-1.82,2.65-2.75.89-.92,1.77-1.86,2.71-2.76,7.42-7.27,15.07-15.02,23.46-22.69,4.16-3.87,8.34-7.86,12.79-11.74,2.21-1.96,4.43-3.93,6.67-5.92,1.12-.99,2.25-1.99,3.38-3,1.13-1,2.26-2.01,3.44-2.99,4.66-3.93,9.4-7.92,14.21-11.97,1.19-1.02,2.44-1.99,3.67-2.99,1.24-.99,2.47-1.98,3.72-2.98,2.49-1.99,4.99-4,7.51-6.01,20.29-15.98,42.31-31.87,65.71-47.08,23.4-15.22,48.19-29.78,73.88-43.29,1.59-.87,3.22-1.68,4.84-2.51,1.62-.83,3.24-1.65,4.86-2.48,3.24-1.65,6.49-3.3,9.74-4.95,3.28-1.59,6.56-3.18,9.85-4.77,3.29-1.58,6.55-3.22,9.89-4.72,3.32-1.53,6.64-3.05,9.96-4.58,1.66-.76,3.32-1.54,4.99-2.28l5.03-2.2c3.35-1.46,6.7-2.93,10.05-4.39,1.67-.74,3.37-1.43,5.05-2.13l5.06-2.1c3.38-1.39,6.73-2.82,10.12-4.16,3.39-1.33,6.78-2.67,10.17-4l5.08-2,5.11-1.91c3.4-1.27,6.8-2.53,10.19-3.8,1.69-.64,3.4-1.24,5.11-1.84,1.7-.6,3.41-1.2,5.11-1.81,1.7-.6,3.4-1.2,5.1-1.8,1.7-.6,3.39-1.21,5.1-1.77,3.41-1.14,6.81-2.28,10.21-3.42,1.7-.56,3.39-1.13,5.09-1.69,1.7-.54,3.4-1.08,5.1-1.62,27.16-8.65,54.1-16.12,80.33-22.29,3.28-.77,6.54-1.54,9.79-2.3,3.26-.72,6.5-1.43,9.73-2.15,1.61-.36,3.22-.71,4.82-1.06,1.61-.34,3.21-.67,4.81-1,3.2-.66,6.38-1.32,9.55-1.97,12.69-2.5,25.1-4.83,37.22-6.81,12.1-2.05,23.91-3.76,35.33-5.33,5.72-.74,11.32-1.51,16.84-2.13,2.76-.32,5.49-.65,8.19-.96,2.71-.29,5.38-.58,8.04-.87,2.65-.3,5.28-.55,7.87-.8,2.6-.25,5.16-.5,7.7-.74,5.08-.43,10.04-.9,14.88-1.25,9.67-.78,18.85-1.32,27.47-1.81,17.25-.88,32.28-1.28,44.64-1.35,12.37-.08,22.07.12,28.67.34,3.3.11,5.83.23,7.54.32,1.7.1,2.58.15,2.58.15,0,0-.88.09-2.57.27Z"/>
            <path class="cls-5" d="m3367.59,136.81c-1.69.18-4.21.47-7.47.89-6.54.83-16.11,2.18-28.21,4.23-12.11,2.03-26.75,4.81-43.42,8.39-8.33,1.84-17.18,3.81-26.45,6.09-4.64,1.1-9.39,2.34-14.24,3.56-2.42.64-4.87,1.28-7.35,1.93-2.48.65-4.98,1.31-7.5,2.01-2.52.69-5.07,1.39-7.64,2.1-2.56.73-5.15,1.47-7.77,2.22-5.23,1.47-10.52,3.09-15.91,4.69-10.76,3.3-21.84,6.78-33.13,10.63-11.31,3.78-22.82,7.93-34.53,12.28-2.92,1.11-5.85,2.23-8.79,3.35-1.47.56-2.95,1.13-4.42,1.69-1.47.58-2.95,1.17-4.43,1.76-2.96,1.17-5.92,2.35-8.91,3.53-2.96,1.22-5.94,2.45-8.93,3.69-23.9,9.87-48.11,21.02-72.14,33.21-1.5.76-3.01,1.52-4.51,2.28-1.49.78-2.99,1.57-4.49,2.35-2.99,1.57-5.98,3.14-8.98,4.72-1.5.77-2.98,1.6-4.47,2.41-1.49.81-2.97,1.63-4.46,2.44-1.49.81-2.97,1.63-4.46,2.44-1.49.81-2.98,1.62-4.45,2.47-2.95,1.68-5.89,3.36-8.85,5.04l-4.42,2.52-4.38,2.6c-2.92,1.73-5.84,3.47-8.76,5.2-2.91,1.74-5.78,3.56-8.67,5.33l-4.32,2.67c-1.44.9-2.89,1.77-4.3,2.7-2.84,1.83-5.69,3.67-8.53,5.5l-4.25,2.74c-1.41.92-2.8,1.88-4.2,2.82-2.79,1.88-5.59,3.76-8.37,5.63-2.8,1.85-5.52,3.82-8.27,5.73-2.74,1.92-5.47,3.84-8.2,5.76-2.69,1.97-5.38,3.93-8.06,5.89-1.34.98-2.68,1.96-4.01,2.94-1.33.98-2.68,1.94-3.98,2.96-21.11,15.89-41.03,32.42-59.44,49.16-18.42,16.74-35.33,33.7-50.59,50.34-1.89,2.1-3.77,4.18-5.63,6.24-.93,1.03-1.86,2.06-2.78,3.08-.92,1.03-1.86,2.03-2.73,3.08-3.56,4.15-7.06,8.24-10.51,12.25-.87.99-1.7,2.02-2.52,3.04-.83,1.02-1.65,2.03-2.47,3.04-1.64,2.01-3.26,4-4.87,5.98-3.26,3.9-6.26,7.91-9.26,11.76-6.06,7.65-11.46,15.31-16.73,22.43-.67.88-1.28,1.81-1.9,2.7-.62.9-1.24,1.8-1.86,2.69-1.23,1.77-2.44,3.53-3.63,5.25-1.19,1.72-2.37,3.42-3.53,5.09-.29.42-.58.83-.87,1.25-.28.42-.55.85-.83,1.27-.55.84-1.09,1.67-1.63,2.5-4.29,6.63-8.42,12.71-11.91,18.58-1.78,2.9-3.49,5.68-5.13,8.33-.41.66-.81,1.32-1.21,1.97-.2.32-.4.64-.59.96-.19.32-.36.62-.54.93-.7,1.23-1.39,2.43-2.06,3.6-2.67,4.66-5.06,8.81-7.14,12.43-2.31,4.19-4.28,7.75-5.88,10.64-3.19,5.78-4.89,8.86-4.89,8.86l-50.62,91.47-50.62-91.47s-1.7-3.08-4.89-8.86c-1.6-2.89-3.56-6.45-5.88-10.64-2.08-3.62-4.47-7.78-7.14-12.43-.67-1.17-1.35-2.37-2.06-3.6-.18-.31-.35-.62-.54-.93-.2-.32-.39-.64-.59-.96-.4-.65-.8-1.3-1.21-1.97-1.63-2.66-3.35-5.44-5.13-8.33-3.49-5.86-7.62-11.95-11.91-18.58-.54-.83-1.08-1.66-1.63-2.5-.27-.42-.55-.84-.83-1.27-.29-.41-.58-.83-.87-1.25-1.16-1.67-2.34-3.37-3.53-5.09-1.19-1.73-2.4-3.48-3.63-5.25-.61-.89-1.23-1.78-1.85-2.69-.63-.9-1.24-1.82-1.9-2.7-5.27-7.13-10.67-14.78-16.73-22.43-3-3.86-5.99-7.86-9.25-11.76-1.61-1.98-3.23-3.97-4.87-5.98-.82-1.01-1.64-2.02-2.47-3.04-.83-1.02-1.65-2.05-2.52-3.04-3.45-4.02-6.95-8.1-10.51-12.25-.88-1.05-1.81-2.05-2.73-3.08-.92-1.02-1.85-2.05-2.78-3.08-1.86-2.07-3.74-4.15-5.63-6.24-15.26-16.64-32.17-33.6-50.59-50.34-18.41-16.75-38.33-33.27-59.44-49.16-1.3-1.02-2.65-1.98-3.98-2.96-1.34-.98-2.67-1.96-4.01-2.94-2.68-1.96-5.37-3.93-8.06-5.89-2.73-1.92-5.46-3.84-8.2-5.76-2.75-1.91-5.46-3.89-8.27-5.73-2.79-1.88-5.58-3.75-8.37-5.63-1.4-.94-2.79-1.89-4.2-2.82l-4.25-2.74c-2.84-1.83-5.68-3.67-8.53-5.5-1.42-.93-2.87-1.8-4.3-2.7l-4.32-2.67c-2.89-1.77-5.75-3.6-8.67-5.33-2.92-1.73-5.84-3.47-8.76-5.2l-4.38-2.6-4.42-2.52c-2.95-1.68-5.9-3.36-8.85-5.04-1.47-.85-2.96-1.65-4.45-2.47-1.49-.81-2.97-1.63-4.46-2.44-1.49-.81-2.97-1.63-4.46-2.44-1.49-.81-2.97-1.64-4.47-2.41-3-1.58-5.99-3.15-8.98-4.72-1.5-.78-2.99-1.57-4.49-2.35-1.51-.76-3.01-1.52-4.51-2.28-24.03-12.18-48.24-23.33-72.14-33.21-2.99-1.23-5.97-2.46-8.93-3.69-2.98-1.18-5.95-2.36-8.91-3.53-1.48-.59-2.95-1.17-4.43-1.76-1.48-.57-2.95-1.13-4.42-1.69-2.95-1.12-5.88-2.24-8.79-3.35-11.7-4.34-23.22-8.5-34.52-12.28-11.29-3.85-22.37-7.33-33.13-10.63-5.39-1.6-10.68-3.22-15.91-4.69-2.61-.75-5.2-1.48-7.77-2.22-2.57-.71-5.12-1.41-7.64-2.1-2.52-.7-5.02-1.36-7.5-2.01-2.48-.65-4.93-1.29-7.35-1.93-4.86-1.21-9.6-2.46-14.24-3.56-9.28-2.29-18.12-4.26-26.45-6.09-16.67-3.58-31.31-6.36-43.42-8.39-12.11-2.05-21.68-3.4-28.21-4.23-3.27-.42-5.78-.71-7.47-.89-1.7-.18-2.57-.27-2.57-.27,0,0,.88-.05,2.58-.15,1.7-.09,4.23-.21,7.54-.32,6.61-.23,16.31-.43,28.67-.34,12.37.06,27.39.47,44.64,1.35,8.62.49,17.8,1.03,27.47,1.81,4.84.35,9.79.82,14.88,1.25,2.54.24,5.11.49,7.7.74,2.6.25,5.22.5,7.87.8,2.65.29,5.33.58,8.04.87,2.7.32,5.44.64,8.19.96,5.52.63,11.13,1.4,16.84,2.13,11.41,1.57,23.22,3.28,35.33,5.33,12.12,1.98,24.53,4.31,37.22,6.81,3.17.65,6.35,1.31,9.55,1.97,1.6.33,3.21.67,4.81,1,1.6.35,3.21.71,4.83,1.06,3.23.71,6.47,1.43,9.73,2.15,3.25.76,6.51,1.53,9.79,2.3,26.24,6.17,53.17,13.63,80.33,22.29,1.7.54,3.4,1.08,5.1,1.62,1.7.56,3.39,1.13,5.09,1.69,3.4,1.14,6.8,2.28,10.21,3.42,1.71.56,3.4,1.17,5.1,1.77,1.7.6,3.4,1.2,5.1,1.8,1.7.6,3.4,1.2,5.11,1.81,1.7.6,3.42,1.2,5.1,1.84,3.39,1.27,6.79,2.53,10.19,3.8l5.11,1.91,5.08,2c3.39,1.33,6.78,2.67,10.17,4,3.39,1.34,6.74,2.78,10.12,4.16l5.06,2.1c1.68.71,3.38,1.39,5.05,2.13,3.35,1.46,6.7,2.93,10.05,4.39l5.03,2.2c1.67.74,3.32,1.52,4.99,2.28,3.32,1.53,6.64,3.06,9.96,4.58,3.33,1.5,6.59,3.14,9.89,4.72,3.29,1.59,6.57,3.18,9.85,4.77,3.25,1.65,6.5,3.3,9.74,4.95,1.62.83,3.24,1.65,4.86,2.48,1.62.83,3.24,1.64,4.84,2.51,25.69,13.51,50.48,28.07,73.88,43.29,23.41,15.22,45.42,31.1,65.71,47.08,2.52,2.02,5.02,4.02,7.51,6.01,1.24,1,2.48,1.99,3.72,2.98,1.23.99,2.48,1.97,3.67,2.99,4.81,4.05,9.55,8.05,14.21,11.97,1.18.97,2.31,1.98,3.44,2.99,1.13,1,2.26,2,3.38,3,2.25,1.99,4.47,3.97,6.67,5.92,4.45,3.87,8.63,7.87,12.79,11.74,8.38,7.67,16.04,15.42,23.46,22.69.94.9,1.81,1.84,2.71,2.76.89.92,1.77,1.84,2.65,2.75.79.82,1.57,1.63,2.35,2.43.78-.81,1.56-1.62,2.34-2.43.88-.91,1.76-1.82,2.65-2.75.89-.92,1.77-1.86,2.71-2.76,7.42-7.27,15.07-15.02,23.46-22.69,4.16-3.87,8.34-7.86,12.79-11.74,2.2-1.96,4.43-3.93,6.67-5.92,1.12-.99,2.25-1.99,3.38-3,1.13-1,2.26-2.01,3.44-2.99,4.66-3.93,9.4-7.92,14.21-11.97,1.19-1.02,2.44-1.99,3.67-2.99,1.24-.99,2.47-1.98,3.72-2.98,2.48-1.99,4.99-4,7.51-6.01,20.29-15.98,42.31-31.87,65.71-47.08,23.4-15.22,48.19-29.78,73.88-43.29,1.59-.87,3.22-1.68,4.84-2.51,1.62-.83,3.24-1.65,4.86-2.48,3.24-1.65,6.49-3.3,9.74-4.95,3.28-1.59,6.56-3.18,9.85-4.77,3.29-1.58,6.55-3.22,9.89-4.72,3.32-1.53,6.64-3.05,9.96-4.58,1.66-.76,3.32-1.54,4.99-2.28l5.03-2.2c3.35-1.46,6.7-2.93,10.05-4.39,1.67-.74,3.36-1.43,5.05-2.13l5.06-2.1c3.38-1.39,6.73-2.82,10.12-4.16,3.39-1.33,6.78-2.67,10.17-4l5.08-2,5.11-1.91c3.4-1.27,6.8-2.53,10.19-3.8,1.69-.64,3.4-1.24,5.11-1.84,1.7-.6,3.41-1.2,5.11-1.81,1.7-.6,3.4-1.2,5.1-1.8,1.7-.6,3.39-1.21,5.1-1.77,3.41-1.14,6.81-2.28,10.21-3.42,1.7-.56,3.39-1.13,5.09-1.69,1.7-.54,3.4-1.08,5.1-1.62,27.16-8.65,54.1-16.12,80.33-22.29,3.28-.77,6.54-1.54,9.79-2.3,3.26-.72,6.5-1.43,9.73-2.15,1.61-.36,3.22-.71,4.83-1.06,1.61-.34,3.21-.67,4.81-1,3.2-.66,6.38-1.32,9.55-1.97,12.69-2.5,25.1-4.83,37.22-6.81,12.1-2.05,23.91-3.76,35.33-5.33,5.72-.74,11.32-1.51,16.84-2.13,2.76-.32,5.49-.65,8.19-.96,2.71-.29,5.39-.58,8.04-.87,2.65-.3,5.28-.55,7.87-.8,2.6-.25,5.16-.5,7.7-.74,5.08-.43,10.04-.9,14.88-1.25,9.67-.78,18.85-1.32,27.47-1.81,17.25-.88,32.28-1.28,44.64-1.35,12.37-.08,22.07.12,28.67.34,3.3.11,5.83.23,7.54.32,1.7.1,2.58.15,2.58.15,0,0-.88.09-2.57.27Z"/>
            <path class="cls-5" d="m3367.59,185.23c-1.69.18-4.21.47-7.47.89-6.54.83-16.11,2.18-28.21,4.23-12.11,2.03-26.75,4.81-43.42,8.39-8.33,1.84-17.18,3.81-26.45,6.09-4.64,1.1-9.38,2.34-14.24,3.56-2.42.64-4.87,1.28-7.35,1.93-2.48.65-4.98,1.31-7.5,2.01-2.52.69-5.07,1.39-7.64,2.1-2.56.73-5.15,1.47-7.77,2.22-5.23,1.47-10.52,3.09-15.91,4.69-10.76,3.3-21.84,6.78-33.13,10.63-11.31,3.78-22.82,7.93-34.53,12.28-2.91,1.11-5.85,2.23-8.79,3.35-1.47.56-2.95,1.13-4.42,1.69-1.47.58-2.95,1.17-4.43,1.76-2.96,1.17-5.92,2.35-8.9,3.53-2.96,1.22-5.94,2.45-8.93,3.69-23.9,9.87-48.11,21.02-72.14,33.21-1.5.76-3.01,1.52-4.51,2.28-1.49.78-2.99,1.56-4.49,2.35-2.99,1.57-5.98,3.14-8.98,4.72-1.5.77-2.98,1.6-4.47,2.41-1.48.81-2.97,1.63-4.46,2.44-1.49.81-2.97,1.63-4.46,2.44-1.49.82-2.98,1.62-4.45,2.47-2.95,1.68-5.89,3.36-8.85,5.04l-4.42,2.52-4.38,2.6c-2.92,1.73-5.84,3.47-8.76,5.2-2.91,1.74-5.78,3.56-8.67,5.33l-4.32,2.67c-1.44.9-2.89,1.77-4.3,2.7-2.84,1.83-5.69,3.67-8.53,5.5l-4.25,2.74c-1.41.92-2.8,1.88-4.2,2.82-2.8,1.88-5.59,3.76-8.38,5.63-2.8,1.85-5.52,3.82-8.27,5.73-2.74,1.92-5.47,3.84-8.21,5.76-2.69,1.97-5.38,3.93-8.06,5.89-1.34.98-2.68,1.96-4.01,2.94-1.33.98-2.68,1.94-3.98,2.96-21.11,15.89-41.03,32.42-59.44,49.16-18.42,16.74-35.33,33.7-50.59,50.34-1.89,2.1-3.77,4.18-5.63,6.24-.93,1.03-1.86,2.06-2.78,3.08-.92,1.03-1.86,2.03-2.74,3.08-3.56,4.15-7.06,8.24-10.51,12.25-.87.99-1.7,2.02-2.53,3.04-.83,1.02-1.65,2.03-2.47,3.04-1.64,2.01-3.26,4-4.87,5.98-3.26,3.9-6.26,7.91-9.26,11.76-6.06,7.65-11.46,15.31-16.73,22.43-.67.88-1.28,1.81-1.9,2.7-.62.9-1.24,1.8-1.86,2.69-1.23,1.77-2.44,3.53-3.63,5.25-1.19,1.72-2.37,3.42-3.53,5.09-.29.42-.58.83-.87,1.25-.28.42-.55.85-.83,1.27-.55.84-1.09,1.67-1.63,2.5-4.29,6.63-8.42,12.71-11.91,18.58-1.78,2.9-3.49,5.68-5.13,8.33-.41.66-.81,1.32-1.21,1.97-.2.32-.4.65-.59.96-.19.32-.36.62-.54.93-.7,1.23-1.39,2.43-2.06,3.6-2.67,4.66-5.06,8.81-7.14,12.43-2.31,4.19-4.28,7.75-5.88,10.64-3.19,5.78-4.89,8.86-4.89,8.86l-50.62,91.47-50.62-91.47s-1.7-3.08-4.89-8.86c-1.6-2.89-3.56-6.45-5.88-10.64-2.08-3.62-4.47-7.78-7.14-12.43-.67-1.17-1.35-2.37-2.06-3.6-.18-.31-.35-.62-.54-.93-.2-.32-.39-.64-.59-.96-.4-.65-.8-1.3-1.21-1.97-1.63-2.66-3.35-5.44-5.13-8.33-3.49-5.86-7.62-11.95-11.91-18.58-.54-.83-1.08-1.66-1.63-2.5-.28-.42-.55-.84-.83-1.27-.29-.41-.58-.83-.87-1.25-1.16-1.67-2.33-3.37-3.53-5.09-1.19-1.73-2.41-3.48-3.63-5.25-.61-.89-1.23-1.78-1.85-2.69-.63-.9-1.24-1.82-1.9-2.7-5.26-7.13-10.66-14.78-16.73-22.43-3-3.86-6-7.86-9.25-11.76-1.61-1.98-3.23-3.97-4.87-5.98-.82-1.01-1.64-2.02-2.47-3.04-.83-1.02-1.65-2.04-2.52-3.04-3.45-4.02-6.95-8.1-10.51-12.25-.88-1.05-1.81-2.05-2.73-3.08-.92-1.02-1.85-2.05-2.78-3.08-1.86-2.07-3.74-4.15-5.63-6.24-15.26-16.64-32.17-33.6-50.59-50.34-18.41-16.75-38.33-33.27-59.44-49.16-1.3-1.02-2.65-1.98-3.98-2.96-1.34-.98-2.67-1.96-4.01-2.94-2.68-1.96-5.37-3.93-8.06-5.89-2.73-1.92-5.46-3.84-8.2-5.76-2.75-1.91-5.46-3.89-8.27-5.73-2.79-1.88-5.58-3.75-8.37-5.63-1.4-.94-2.79-1.89-4.2-2.82l-4.26-2.74c-2.84-1.83-5.68-3.67-8.53-5.5-1.41-.93-2.87-1.8-4.3-2.7l-4.32-2.67c-2.89-1.77-5.75-3.6-8.67-5.33-2.92-1.73-5.84-3.47-8.75-5.2l-4.38-2.6-4.42-2.52c-2.95-1.68-5.9-3.36-8.85-5.04-1.47-.85-2.96-1.65-4.45-2.47-1.49-.81-2.97-1.63-4.46-2.44-1.49-.81-2.97-1.63-4.46-2.44-1.49-.81-2.97-1.64-4.47-2.41-3-1.58-5.99-3.15-8.98-4.72-1.5-.78-2.99-1.57-4.49-2.35-1.5-.76-3.01-1.52-4.51-2.28-24.03-12.18-48.24-23.33-72.14-33.21-2.99-1.23-5.97-2.46-8.93-3.69-2.98-1.18-5.95-2.36-8.91-3.53-1.48-.59-2.95-1.17-4.43-1.76-1.48-.57-2.95-1.13-4.42-1.69-2.95-1.12-5.88-2.24-8.79-3.35-11.7-4.34-23.22-8.5-34.53-12.28-11.29-3.85-22.37-7.33-33.13-10.63-5.39-1.6-10.68-3.22-15.91-4.69-2.61-.75-5.2-1.48-7.77-2.22-2.57-.71-5.12-1.41-7.64-2.1-2.52-.7-5.02-1.36-7.5-2.01-2.48-.65-4.93-1.29-7.35-1.93-4.86-1.21-9.6-2.46-14.24-3.56-9.27-2.29-18.12-4.26-26.45-6.09-16.67-3.58-31.31-6.36-43.42-8.39-12.11-2.05-21.68-3.4-28.21-4.23-3.27-.42-5.78-.71-7.47-.89-1.7-.18-2.57-.27-2.57-.27,0,0,.88-.05,2.58-.15,1.7-.09,4.23-.21,7.54-.32,6.61-.23,16.31-.43,28.68-.34,12.37.06,27.39.47,44.64,1.35,8.62.49,17.8,1.03,27.47,1.81,4.84.35,9.79.82,14.88,1.25,2.54.24,5.11.49,7.7.74,2.6.25,5.22.5,7.87.8,2.65.29,5.33.58,8.04.87,2.7.32,5.44.64,8.19.96,5.52.63,11.13,1.4,16.84,2.13,11.42,1.57,23.22,3.28,35.33,5.33,12.12,1.98,24.53,4.31,37.22,6.81,3.17.65,6.35,1.31,9.55,1.97,1.6.33,3.21.67,4.81,1,1.6.35,3.21.71,4.83,1.06,3.23.71,6.47,1.43,9.73,2.15,3.25.76,6.51,1.53,9.79,2.3,26.23,6.17,53.17,13.63,80.33,22.29,1.7.54,3.4,1.08,5.1,1.62,1.7.56,3.39,1.13,5.09,1.69,3.4,1.14,6.8,2.28,10.21,3.42,1.71.56,3.4,1.17,5.1,1.77,1.7.6,3.4,1.2,5.1,1.8,1.7.6,3.4,1.2,5.11,1.81,1.7.6,3.41,1.2,5.1,1.84,3.39,1.27,6.79,2.53,10.19,3.8l5.11,1.91,5.08,2c3.39,1.33,6.78,2.67,10.17,4,3.39,1.34,6.74,2.78,10.12,4.16l5.06,2.1c1.68.71,3.38,1.39,5.05,2.13,3.35,1.46,6.7,2.93,10.05,4.39l5.03,2.2c1.67.74,3.32,1.52,4.99,2.28,3.32,1.53,6.64,3.06,9.96,4.58,3.33,1.5,6.59,3.14,9.89,4.72,3.29,1.59,6.57,3.18,9.85,4.77,3.25,1.65,6.5,3.3,9.74,4.95,1.62.83,3.24,1.65,4.86,2.48,1.62.83,3.24,1.64,4.84,2.51,25.69,13.51,50.48,28.07,73.88,43.29,23.41,15.22,45.42,31.1,65.71,47.08,2.52,2.02,5.02,4.02,7.51,6.01,1.24,1,2.48,1.99,3.72,2.98,1.23.99,2.48,1.97,3.67,2.99,4.81,4.05,9.55,8.05,14.21,11.97,1.18.97,2.31,1.98,3.44,2.99,1.13,1,2.26,2,3.38,3,2.25,1.99,4.47,3.97,6.67,5.92,4.45,3.87,8.63,7.87,12.79,11.74,8.38,7.67,16.04,15.42,23.46,22.69.94.9,1.81,1.84,2.71,2.76.89.92,1.77,1.84,2.65,2.75.79.82,1.57,1.63,2.35,2.43.78-.81,1.56-1.62,2.35-2.43.88-.91,1.76-1.82,2.65-2.75.89-.92,1.77-1.86,2.71-2.76,7.42-7.27,15.07-15.02,23.46-22.69,4.16-3.87,8.34-7.86,12.79-11.74,2.21-1.96,4.43-3.93,6.67-5.92,1.12-.99,2.25-1.99,3.38-3,1.13-1,2.26-2.01,3.44-2.99,4.66-3.93,9.4-7.92,14.21-11.97,1.19-1.02,2.44-1.99,3.67-2.99,1.24-.99,2.47-1.98,3.72-2.98,2.49-1.99,4.99-4,7.51-6.01,20.29-15.98,42.31-31.87,65.71-47.08,23.4-15.22,48.19-29.78,73.88-43.29,1.59-.87,3.22-1.68,4.84-2.51,1.62-.83,3.24-1.65,4.86-2.48,3.24-1.65,6.49-3.3,9.74-4.95,3.28-1.59,6.56-3.18,9.85-4.77,3.29-1.58,6.55-3.22,9.89-4.72,3.32-1.53,6.64-3.05,9.96-4.58,1.66-.76,3.32-1.54,4.99-2.28l5.03-2.2c3.35-1.46,6.7-2.93,10.05-4.39,1.67-.74,3.37-1.43,5.05-2.13l5.06-2.1c3.38-1.39,6.73-2.82,10.12-4.16,3.39-1.34,6.78-2.67,10.17-4l5.08-2,5.11-1.91c3.4-1.27,6.8-2.53,10.19-3.8,1.69-.64,3.4-1.24,5.11-1.84,1.7-.6,3.41-1.2,5.11-1.81,1.7-.6,3.4-1.2,5.1-1.8,1.7-.6,3.39-1.21,5.1-1.77,3.41-1.14,6.81-2.28,10.21-3.42,1.7-.56,3.39-1.13,5.09-1.69,1.7-.54,3.4-1.08,5.1-1.62,27.16-8.65,54.1-16.12,80.33-22.29,3.28-.77,6.54-1.54,9.79-2.3,3.26-.72,6.5-1.43,9.73-2.15,1.61-.36,3.22-.71,4.82-1.06,1.61-.34,3.21-.67,4.81-1,3.2-.66,6.38-1.32,9.55-1.97,12.69-2.5,25.1-4.83,37.22-6.81,12.1-2.05,23.91-3.76,35.33-5.33,5.72-.74,11.32-1.51,16.84-2.13,2.76-.32,5.49-.64,8.19-.96,2.71-.29,5.38-.58,8.04-.87,2.65-.3,5.28-.55,7.87-.8,2.6-.25,5.16-.5,7.7-.74,5.08-.43,10.04-.9,14.88-1.25,9.67-.78,18.85-1.32,27.47-1.81,17.25-.88,32.28-1.28,44.64-1.35,12.37-.08,22.07.12,28.67.34,3.3.11,5.83.23,7.54.32,1.7.1,2.58.15,2.58.15,0,0-.88.09-2.57.27Z"/>
            <circle class="cls-7" cx="2617.21" cy="135.71" r="135.71"/>
          </g>
        </g>
      </g>
    </g>
  </g>
</svg>